<svg width="8" height="5" viewBox="0 0 8 5" fill="none" xmlns="http://www.w3.org/2000/svg">
<path d="M6.03431 1L1.96569 1C1.66278 1 1.51132 1 1.44119 1.0599C1.38034 1.11187 1.34805 1.18984 1.35432 1.26961C1.36156 1.36156 1.46865 1.46865 1.68284 1.68284L3.71716 3.71716L3.71716 3.71716C3.81616 3.81616 3.86566 3.86566 3.92275 3.88421C3.97296 3.90053 4.02704 3.90053 4.07725 3.88421C4.13434 3.86566 4.18384 3.81616 4.28284 3.71716L4.28284 3.71716L6.31716 1.68284L6.31716 1.68284C6.53135 1.46865 6.63844 1.36156 6.64568 1.26961C6.65195 1.18984 6.61966 1.11187 6.55881 1.0599C6.48868 1 6.33722 1 6.03431 1Z" stroke="#B8B8B8" stroke-linecap="round" stroke-linejoin="round"/>
</svg>
