<svg width="8" height="5" viewBox="0 0 8 5" fill="none" xmlns="http://www.w3.org/2000/svg">
<path d="M5.79272 0.5L2.20728 0.5C1.51492 0.5 1.16874 0.500001 1.00844 0.636911C0.869346 0.755707 0.795532 0.93391 0.809884 1.11626C0.826424 1.32642 1.07121 1.57121 1.56078 2.06078L1.56078 2.06078L3.3535 3.8535C3.5798 4.0798 3.69295 4.19295 3.82342 4.23534C3.93819 4.27263 4.06181 4.27263 4.17658 4.23534C4.30705 4.19295 4.4202 4.0798 4.6465 3.8535L6.43922 2.06078L6.43922 2.06078C6.92879 1.57121 7.17358 1.32642 7.19012 1.11626C7.20447 0.93391 7.13065 0.755707 6.99156 0.636911C6.83126 0.5 6.48508 0.5 5.79272 0.5Z" fill="white"/>
</svg>
