<svg width="6" height="3" viewBox="0 0 6 3" fill="none" xmlns="http://www.w3.org/2000/svg">
<path d="M4.34454 4.76837e-07L1.65546 4.76837e-07C1.13619 4.76837e-07 0.876555 4.76837e-07 0.756328 0.102684C0.65201 0.19178 0.596649 0.325432 0.607413 0.462197C0.619818 0.619818 0.803408 0.803408 1.17059 1.17059L2.51513 2.51513C2.68485 2.68485 2.76971 2.76971 2.86756 2.8015C2.95364 2.82947 3.04636 2.82947 3.13244 2.8015C3.23029 2.76971 3.31515 2.68485 3.48487 2.51513L4.82941 1.17059C5.19659 0.803408 5.38018 0.619818 5.39259 0.462197C5.40335 0.325432 5.34799 0.19178 5.24367 0.102684C5.12344 4.76837e-07 4.86381 4.76837e-07 4.34454 4.76837e-07Z" fill="#B8B8B8"/>
</svg>
