<svg width="20" height="20" viewBox="0 0 20 20" fill="none" xmlns="http://www.w3.org/2000/svg">
<path d="M15.4166 15.4167L16.6666 16.6667M5.33325 8.33333H6.33325C7.03332 8.33333 7.38335 8.33333 7.65074 8.19709C7.88594 8.07725 8.07717 7.88602 8.19701 7.65082C8.33325 7.38343 8.33325 7.0334 8.33325 6.33333V5.33333C8.33325 4.63327 8.33325 4.28323 8.19701 4.01584C8.07717 3.78064 7.88594 3.58942 7.65074 3.46957C7.38335 3.33333 7.03332 3.33333 6.33325 3.33333H5.33325C4.63319 3.33333 4.28315 3.33333 4.01576 3.46957C3.78056 3.58942 3.58934 3.78064 3.46949 4.01584C3.33325 4.28323 3.33325 4.63327 3.33325 5.33333V6.33333C3.33325 7.0334 3.33325 7.38343 3.46949 7.65082C3.58934 7.88602 3.78056 8.07725 4.01576 8.19709C4.28315 8.33333 4.63319 8.33333 5.33325 8.33333ZM5.33325 16.6667H6.33325C7.03332 16.6667 7.38335 16.6667 7.65074 16.5304C7.88594 16.4106 8.07717 16.2194 8.19701 15.9842C8.33325 15.7168 8.33325 15.3667 8.33325 14.6667V13.6667C8.33325 12.9666 8.33325 12.6166 8.19701 12.3492C8.07717 12.114 7.88594 11.9227 7.65074 11.8029C7.38335 11.6667 7.03332 11.6667 6.33325 11.6667H5.33325C4.63319 11.6667 4.28315 11.6667 4.01576 11.8029C3.78056 11.9227 3.58934 12.114 3.46949 12.3492C3.33325 12.6166 3.33325 12.9666 3.33325 13.6667V14.6667C3.33325 15.3667 3.33325 15.7168 3.46949 15.9842C3.58934 16.2194 3.78056 16.4106 4.01576 16.5304C4.28315 16.6667 4.63319 16.6667 5.33325 16.6667ZM13.6666 8.33333H14.6666C15.3667 8.33333 15.7167 8.33333 15.9841 8.19709C16.2193 8.07725 16.4105 7.88602 16.5303 7.65082C16.6666 7.38343 16.6666 7.0334 16.6666 6.33333V5.33333C16.6666 4.63327 16.6666 4.28323 16.5303 4.01584C16.4105 3.78064 16.2193 3.58942 15.9841 3.46957C15.7167 3.33333 15.3667 3.33333 14.6666 3.33333H13.6666C12.9665 3.33333 12.6165 3.33333 12.3491 3.46957C12.1139 3.58942 11.9227 3.78064 11.8028 4.01584C11.6666 4.28323 11.6666 4.63327 11.6666 5.33333V6.33333C11.6666 7.0334 11.6666 7.38343 11.8028 7.65082C11.9227 7.88602 12.1139 8.07725 12.3491 8.19709C12.6165 8.33333 12.9665 8.33333 13.6666 8.33333ZM15.8333 13.75C15.8333 14.9006 14.9005 15.8333 13.7499 15.8333C12.5993 15.8333 11.6666 14.9006 11.6666 13.75C11.6666 12.5994 12.5993 11.6667 13.7499 11.6667C14.9005 11.6667 15.8333 12.5994 15.8333 13.75Z" stroke="white" stroke-width="1.66667" stroke-linecap="round" stroke-linejoin="round"/>
</svg>
