<svg width="19" height="20" viewBox="0 0 19 20" fill="none" xmlns="http://www.w3.org/2000/svg">
<path d="M5.8399 10H15.0417L16.625 4.45833H14.25M15.8333 13.1667H6.33333L4.75 2.875H2.375M11.875 6.04167H8.70833M10.2917 7.625V4.45833M7.125 16.3333C7.125 16.7706 6.77056 17.125 6.33333 17.125C5.89611 17.125 5.54167 16.7706 5.54167 16.3333C5.54167 15.8961 5.89611 15.5417 6.33333 15.5417C6.77056 15.5417 7.125 15.8961 7.125 16.3333ZM15.8333 16.3333C15.8333 16.7706 15.4789 17.125 15.0417 17.125C14.6044 17.125 14.25 16.7706 14.25 16.3333C14.25 15.8961 14.6044 15.5417 15.0417 15.5417C15.4789 15.5417 15.8333 15.8961 15.8333 16.3333Z" stroke="white" stroke-width="1.58333" stroke-linecap="round" stroke-linejoin="round"/>
</svg>
