<svg width="21" height="21" viewBox="0 0 21 21" fill="none" xmlns="http://www.w3.org/2000/svg">
<path d="M5.5123 4.375H18.375L16.625 10.5H6.45462M17.5 14H7L5.25 2.625H2.625M7.875 17.5C7.875 17.9832 7.48325 18.375 7 18.375C6.51675 18.375 6.125 17.9832 6.125 17.5C6.125 17.0167 6.51675 16.625 7 16.625C7.48325 16.625 7.875 17.0167 7.875 17.5ZM17.5 17.5C17.5 17.9832 17.1082 18.375 16.625 18.375C16.1417 18.375 15.75 17.9832 15.75 17.5C15.75 17.0167 16.1417 16.625 16.625 16.625C17.1082 16.625 17.5 17.0167 17.5 17.5Z" stroke="white" stroke-width="1.75" stroke-linecap="round" stroke-linejoin="round"/>
</svg>
