<svg width="14" height="14" viewBox="0 0 14 14" fill="none" xmlns="http://www.w3.org/2000/svg">
<path d="M4.30308 7H11.0833L12.25 2.91667H11.0832M11.6667 9.33333H4.66667L3.5 1.75H1.75M6.41667 2.33333L8.75 4.66667M8.75 2.33333L6.41667 4.66667M5.25 11.6667C5.25 11.9888 4.98883 12.25 4.66667 12.25C4.3445 12.25 4.08333 11.9888 4.08333 11.6667C4.08333 11.3445 4.3445 11.0833 4.66667 11.0833C4.98883 11.0833 5.25 11.3445 5.25 11.6667ZM11.6667 11.6667C11.6667 11.9888 11.4055 12.25 11.0833 12.25C10.7612 12.25 10.5 11.9888 10.5 11.6667C10.5 11.3445 10.7612 11.0833 11.0833 11.0833C11.4055 11.0833 11.6667 11.3445 11.6667 11.6667Z" stroke="url(#paint0_linear_365_19730)" stroke-width="1.33333" stroke-linecap="round" stroke-linejoin="round"/>
<defs>
<linearGradient id="paint0_linear_365_19730" x1="1.75" y1="12.25" x2="12.8794" y2="11.5341" gradientUnits="userSpaceOnUse">
<stop stop-color="#BD1717"/>
<stop offset="1" stop-color="#CA0000"/>
</linearGradient>
</defs>
</svg>
