<svg width="24" height="24" viewBox="0 0 24 24" fill="none" xmlns="http://www.w3.org/2000/svg">
<path d="M21.4274 2.5783C20.9274 2.0673 20.1874 1.8783 19.4974 2.0783L3.40742 6.7273C2.67942 6.9293 2.16342 7.5063 2.02442 8.2383C1.88242 8.9843 2.37842 9.9323 3.02642 10.3283L8.05742 13.4003C8.57342 13.7163 9.23942 13.6373 9.66642 13.2093L15.4274 7.4483C15.7174 7.1473 16.1974 7.1473 16.4874 7.4483C16.7774 7.7373 16.7774 8.2083 16.4874 8.5083L10.7164 14.2693C10.2884 14.6973 10.2084 15.3613 10.5234 15.8783L13.5974 20.9283C13.9574 21.5273 14.5774 21.8683 15.2574 21.8683C15.3374 21.8683 15.4274 21.8683 15.5074 21.8573C16.2874 21.7583 16.9074 21.2273 17.1374 20.4773L21.9074 4.5083C22.1174 3.8283 21.9274 3.0883 21.4274 2.5783" fill="white"/>
<path opacity="0.4" fill-rule="evenodd" clip-rule="evenodd" d="M3.01147 16.8078C2.81947 16.8078 2.62747 16.7348 2.48147 16.5878C2.18847 16.2948 2.18847 15.8208 2.48147 15.5278L3.84647 14.1618C4.13947 13.8698 4.61447 13.8698 4.90747 14.1618C5.19947 14.4548 5.19947 14.9298 4.90747 15.2228L3.54147 16.5878C3.39547 16.7348 3.20347 16.8078 3.01147 16.8078ZM6.77267 18.0002C6.58067 18.0002 6.38867 17.9272 6.24267 17.7802C5.94967 17.4872 5.94967 17.0132 6.24267 16.7202L7.60767 15.3542C7.90067 15.0622 8.37567 15.0622 8.66867 15.3542C8.96067 15.6472 8.96067 16.1222 8.66867 16.4152L7.30267 17.7802C7.15667 17.9272 6.96467 18.0002 6.77267 18.0002ZM7.02637 21.5682C7.17237 21.7152 7.36437 21.7882 7.55637 21.7882C7.74837 21.7882 7.94037 21.7152 8.08637 21.5682L9.45237 20.2032C9.74437 19.9102 9.74437 19.4352 9.45237 19.1422C9.15937 18.8502 8.68437 18.8502 8.39137 19.1422L7.02637 20.5082C6.73337 20.8012 6.73337 21.2752 7.02637 21.5682Z" fill="white"/>
</svg>
