<svg width="17" height="14" viewBox="0 0 17 14" fill="none" xmlns="http://www.w3.org/2000/svg">
<path fill-rule="evenodd" clip-rule="evenodd" d="M13.3917 2.1955C14.8144 3.29368 16.0258 4.90257 16.8957 6.91469C16.9608 7.06742 16.9608 7.246 16.8957 7.39146C15.1559 11.4157 12.0583 13.8238 8.61117 13.8238H8.60304C5.16401 13.8238 2.06645 11.4157 0.326613 7.39146C0.261572 7.246 0.261572 7.06742 0.326613 6.91469C2.06645 2.88964 5.16401 0.490448 8.60304 0.490448H8.61117C10.3347 0.490448 11.9689 1.08843 13.3917 2.1955ZM5.35901 7.15713C5.35901 8.93491 6.8143 10.3814 8.61105 10.3814C10.3997 10.3814 11.8549 8.93491 11.8549 7.15713C11.8549 5.37127 10.3997 3.92481 8.61105 3.92481C6.8143 3.92481 5.35901 5.37127 5.35901 7.15713Z" fill="#808191"/>
<path d="M10.637 7.15454C10.637 8.26161 9.72642 9.16666 8.6126 9.16666C7.49065 9.16666 6.58008 8.26161 6.58008 7.15454C6.58008 7.01717 6.59634 6.88868 6.62073 6.75939H6.66138C7.56382 6.75939 8.29552 6.04828 8.32805 5.15858C8.41748 5.14323 8.51504 5.13434 8.6126 5.13434C9.72642 5.13434 10.637 6.03939 10.637 7.15454" fill="#808191"/>
</svg>
