<svg width="18" height="18" viewBox="0 0 18 18" fill="none" xmlns="http://www.w3.org/2000/svg">
<path d="M5.8326 6.54139C5.35448 6.54139 4.96689 6.92898 4.96689 7.4071C4.96689 7.88522 5.35448 8.27282 5.8326 8.27282V6.54139ZM12.4993 8.27282C12.9774 8.27282 13.365 7.88522 13.365 7.4071C13.365 6.92898 12.9774 6.54139 12.4993 6.54139V8.27282ZM5.8326 9.87472C5.35448 9.87472 4.96689 10.2623 4.96689 10.7404C4.96689 11.2186 5.35448 11.6062 5.8326 11.6062V9.87472ZM8.3326 11.6062C8.81072 11.6062 9.19832 11.2186 9.19832 10.7404C9.19832 10.2623 8.81072 9.87472 8.3326 9.87472V11.6062ZM2.44912 11.9911L3.22434 11.6057L3.22434 11.6057L2.44912 11.9911ZM1.66979 16.1571L0.870614 15.8243C0.759341 16.0915 0.788949 16.3966 0.949515 16.6374C1.11008 16.8782 1.38036 17.0228 1.66979 17.0228V16.1571ZM5.8326 8.27282H12.4993V6.54139H5.8326V8.27282ZM5.8326 11.6062H8.3326V9.87472H5.8326V11.6062ZM15.8035 8.6571C15.8035 12.3211 12.8332 15.2914 9.16919 15.2914V17.0228C13.7894 17.0228 17.5349 13.2774 17.5349 8.6571H15.8035ZM2.5349 8.6571C2.5349 4.99309 5.50517 2.02282 9.16919 2.02282V0.29139C4.54893 0.29139 0.803475 4.03685 0.803475 8.6571H2.5349ZM9.16919 2.02282C12.8332 2.02282 15.8035 4.99309 15.8035 8.6571H17.5349C17.5349 4.03685 13.7894 0.29139 9.16919 0.29139V2.02282ZM3.22434 11.6057C2.78331 10.7185 2.5349 9.71805 2.5349 8.6571H0.803475C0.803475 9.99141 1.11649 11.2551 1.67389 12.3764L3.22434 11.6057ZM9.16919 15.2914C9.16587 15.2914 9.16254 15.2914 9.1592 15.2914C9.15585 15.2914 9.15249 15.2914 9.14911 15.2914C9.14574 15.2914 9.14234 15.2914 9.13894 15.2914C9.13553 15.2914 9.1321 15.2914 9.12867 15.2914C9.12523 15.2914 9.12177 15.2914 9.1183 15.2914C9.11483 15.2914 9.11135 15.2914 9.10785 15.2914C9.10435 15.2914 9.10084 15.2914 9.09731 15.2914C9.09378 15.2914 9.09023 15.2914 9.08667 15.2914C9.08311 15.2914 9.07953 15.2914 9.07594 15.2914C9.07235 15.2914 9.06875 15.2914 9.06513 15.2914C9.06151 15.2914 9.05787 15.2914 9.05422 15.2914C9.05057 15.2914 9.04691 15.2914 9.04323 15.2914C9.03955 15.2914 9.03585 15.2914 9.03214 15.2914C9.02844 15.2914 9.02471 15.2914 9.02097 15.2914C9.01723 15.2914 9.01348 15.2914 9.00971 15.2914C9.00595 15.2914 9.00216 15.2914 8.99837 15.2914C8.99457 15.2914 8.99076 15.2914 8.98693 15.2914C8.98311 15.2914 8.97927 15.2914 8.97541 15.2914C8.97156 15.2914 8.96769 15.2914 8.96381 15.2914C8.95992 15.2914 8.95603 15.2914 8.95212 15.2914C8.9482 15.2914 8.94428 15.2914 8.94034 15.2914C8.9364 15.2914 8.93245 15.2914 8.92848 15.2914C8.92451 15.2914 8.92053 15.2914 8.91653 15.2914C8.91254 15.2914 8.90853 15.2914 8.9045 15.2914C8.90048 15.2914 8.89644 15.2914 8.89239 15.2914C8.88834 15.2914 8.88427 15.2914 8.8802 15.2914C8.87612 15.2914 8.87202 15.2914 8.86792 15.2914C8.86381 15.2914 8.85969 15.2914 8.85556 15.2914C8.85142 15.2914 8.84728 15.2914 8.84312 15.2914C8.83896 15.2914 8.83478 15.2914 8.83059 15.2914C8.82641 15.2914 8.8222 15.2914 8.81799 15.2914C8.81378 15.2914 8.80955 15.2914 8.80531 15.2914C8.80107 15.2914 8.79681 15.2914 8.79254 15.2914C8.78828 15.2914 8.78399 15.2914 8.7797 15.2914C8.77541 15.2914 8.7711 15.2914 8.76678 15.2914C8.76246 15.2914 8.75813 15.2914 8.75378 15.2914C8.74943 15.2914 8.74507 15.2914 8.7407 15.2914C8.73633 15.2914 8.73194 15.2914 8.72755 15.2914C8.72315 15.2914 8.71874 15.2914 8.71431 15.2914C8.70989 15.2914 8.70545 15.2914 8.701 15.2914C8.69655 15.2914 8.69209 15.2914 8.68762 15.2914C8.68314 15.2914 8.67866 15.2914 8.67416 15.2914C8.66966 15.2914 8.66514 15.2914 8.66062 15.2914C8.65609 15.2914 8.65156 15.2914 8.64701 15.2914C8.64246 15.2914 8.6379 15.2914 8.63332 15.2914C8.62875 15.2914 8.62416 15.2914 8.61956 15.2914C8.61496 15.2914 8.61035 15.2914 8.60573 15.2914C8.6011 15.2914 8.59647 15.2914 8.59182 15.2914C8.58717 15.2914 8.58251 15.2914 8.57784 15.2914C8.57317 15.2914 8.56848 15.2914 8.56379 15.2914C8.55909 15.2914 8.55438 15.2914 8.54966 15.2914C8.54494 15.2914 8.54021 15.2914 8.53547 15.2914C8.53073 15.2914 8.52597 15.2914 8.5212 15.2914C8.51644 15.2914 8.51166 15.2914 8.50687 15.2914C8.50208 15.2914 8.49727 15.2914 8.49246 15.2914C8.48765 15.2914 8.48282 15.2914 8.47798 15.2914C8.47315 15.2914 8.4683 15.2914 8.46344 15.2914C8.45858 15.2914 8.45371 15.2914 8.44882 15.2914C8.44394 15.2914 8.43905 15.2914 8.43414 15.2914C8.42924 15.2914 8.42432 15.2914 8.41939 15.2914C8.41446 15.2914 8.40952 15.2914 8.40457 15.2914C8.39962 15.2914 8.39466 15.2914 8.38969 15.2914C8.38472 15.2914 8.37973 15.2914 8.37474 15.2914C8.36974 15.2914 8.36474 15.2914 8.35972 15.2914C8.3547 15.2914 8.34968 15.2914 8.34464 15.2914C8.3396 15.2914 8.33455 15.2914 8.32949 15.2914C8.32443 15.2914 8.31936 15.2914 8.31428 15.2914C8.3092 15.2914 8.3041 15.2914 8.299 15.2914C8.2939 15.2914 8.28878 15.2914 8.28366 15.2914C8.27854 15.2914 8.2734 15.2914 8.26826 15.2914C8.26311 15.2914 8.25795 15.2914 8.25279 15.2914C8.24762 15.2914 8.24245 15.2914 8.23726 15.2914C8.23207 15.2914 8.22687 15.2914 8.22167 15.2914C8.21646 15.2914 8.21124 15.2914 8.20601 15.2914C8.20079 15.2914 8.19555 15.2914 8.1903 15.2914C8.18505 15.2914 8.17979 15.2914 8.17452 15.2914C8.16925 15.2914 8.16398 15.2914 8.15869 15.2914C8.1534 15.2914 8.1481 15.2914 8.14279 15.2914C8.13748 15.2914 8.13217 15.2914 8.12684 15.2914C8.12151 15.2914 8.11617 15.2914 8.11082 15.2914C8.10548 15.2914 8.10012 15.2914 8.09475 15.2914C8.08938 15.2914 8.08401 15.2914 8.07862 15.2914C8.07323 15.2914 8.06784 15.2914 8.06243 15.2914C8.05703 15.2914 8.05161 15.2914 8.04619 15.2914C8.04076 15.2914 8.03533 15.2914 8.02988 15.2914C8.02444 15.2914 8.01899 15.2914 8.01353 15.2914C8.00806 15.2914 8.00259 15.2914 7.99711 15.2914C7.99163 15.2914 7.98614 15.2914 7.98064 15.2914C7.97514 15.2914 7.96963 15.2914 7.96412 15.2914C7.9586 15.2914 7.95307 15.2914 7.94754 15.2914C7.942 15.2914 7.93646 15.2914 7.9309 15.2914C7.92535 15.2914 7.91979 15.2914 7.91422 15.2914C7.90865 15.2914 7.90307 15.2914 7.89748 15.2914C7.89189 15.2914 7.88629 15.2914 7.88068 15.2914C7.87508 15.2914 7.86946 15.2914 7.86384 15.2914C7.85821 15.2914 7.85258 15.2914 7.84694 15.2914C7.8413 15.2914 7.83565 15.2914 7.82999 15.2914C7.82433 15.2914 7.81867 15.2914 7.81299 15.2914C7.80732 15.2914 7.80163 15.2914 7.79594 15.2914C7.79025 15.2914 7.78455 15.2914 7.77884 15.2914C7.77313 15.2914 7.76742 15.2914 7.76169 15.2914C7.75597 15.2914 7.75023 15.2914 7.74449 15.2914C7.73875 15.2914 7.733 15.2914 7.72724 15.2914C7.72149 15.2914 7.71572 15.2914 7.70995 15.2914C7.70417 15.2914 7.69839 15.2914 7.6926 15.2914C7.68681 15.2914 7.68102 15.2914 7.67521 15.2914C7.66941 15.2914 7.66359 15.2914 7.65777 15.2914C7.65195 15.2914 7.64612 15.2914 7.64029 15.2914C7.63445 15.2914 7.62861 15.2914 7.62276 15.2914C7.61691 15.2914 7.61105 15.2914 7.60518 15.2914C7.59931 15.2914 7.59344 15.2914 7.58756 15.2914C7.58168 15.2914 7.57579 15.2914 7.56989 15.2914C7.56399 15.2914 7.55809 15.2914 7.55218 15.2914C7.54627 15.2914 7.54035 15.2914 7.53442 15.2914C7.5285 15.2914 7.52256 15.2914 7.51662 15.2914C7.51068 15.2914 7.50474 15.2914 7.49878 15.2914C7.49283 15.2914 7.48687 15.2914 7.4809 15.2914C7.47493 15.2914 7.46895 15.2914 7.46297 15.2914C7.45699 15.2914 7.451 15.2914 7.445 15.2914C7.43901 15.2914 7.433 15.2914 7.42699 15.2914C7.42098 15.2914 7.41497 15.2914 7.40894 15.2914C7.40292 15.2914 7.39689 15.2914 7.39085 15.2914C7.38481 15.2914 7.37877 15.2914 7.37272 15.2914C7.36667 15.2914 7.36061 15.2914 7.35455 15.2914C7.34849 15.2914 7.34242 15.2914 7.33634 15.2914C7.33026 15.2914 7.32418 15.2914 7.31809 15.2914C7.312 15.2914 7.30591 15.2914 7.29981 15.2914C7.2937 15.2914 7.2876 15.2914 7.28148 15.2914C7.27537 15.2914 7.26925 15.2914 7.26312 15.2914C7.25699 15.2914 7.25086 15.2914 7.24472 15.2914C7.23858 15.2914 7.23244 15.2914 7.22629 15.2914C7.22014 15.2914 7.21398 15.2914 7.20782 15.2914C7.20166 15.2914 7.19549 15.2914 7.18931 15.2914C7.18314 15.2914 7.17696 15.2914 7.17077 15.2914C7.16459 15.2914 7.15839 15.2914 7.1522 15.2914C7.146 15.2914 7.1398 15.2914 7.13359 15.2914C7.12738 15.2914 7.12116 15.2914 7.11494 15.2914C7.10872 15.2914 7.1025 15.2914 7.09627 15.2914C7.09004 15.2914 7.0838 15.2914 7.07756 15.2914C7.07132 15.2914 7.06507 15.2914 7.05882 15.2914C7.05256 15.2914 7.0463 15.2914 7.04004 15.2914C7.03378 15.2914 7.02751 15.2914 7.02124 15.2914C7.01496 15.2914 7.00868 15.2914 7.0024 15.2914C6.99612 15.2914 6.98983 15.2914 6.98353 15.2914C6.97724 15.2914 6.97094 15.2914 6.96464 15.2914C6.95833 15.2914 6.95202 15.2914 6.94571 15.2914C6.93939 15.2914 6.93308 15.2914 6.92675 15.2914C6.92043 15.2914 6.9141 15.2914 6.90777 15.2914C6.90143 15.2914 6.8951 15.2914 6.88875 15.2914C6.88241 15.2914 6.87606 15.2914 6.86971 15.2914C6.86336 15.2914 6.857 15.2914 6.85064 15.2914C6.84428 15.2914 6.83792 15.2914 6.83155 15.2914C6.82518 15.2914 6.8188 15.2914 6.81242 15.2914C6.80605 15.2914 6.79966 15.2914 6.79328 15.2914C6.78689 15.2914 6.7805 15.2914 6.7741 15.2914C6.7677 15.2914 6.7613 15.2914 6.7549 15.2914C6.7485 15.2914 6.74209 15.2914 6.73568 15.2914C6.72926 15.2914 6.72285 15.2914 6.71643 15.2914C6.71001 15.2914 6.70358 15.2914 6.69715 15.2914C6.69072 15.2914 6.68429 15.2914 6.67786 15.2914C6.67142 15.2914 6.66498 15.2914 6.65854 15.2914C6.65209 15.2914 6.64564 15.2914 6.63919 15.2914C6.63274 15.2914 6.62629 15.2914 6.61983 15.2914C6.61337 15.2914 6.60691 15.2914 6.60044 15.2914C6.59398 15.2914 6.58751 15.2914 6.58103 15.2914C6.57456 15.2914 6.56809 15.2914 6.56161 15.2914C6.55513 15.2914 6.54864 15.2914 6.54216 15.2914C6.53567 15.2914 6.52918 15.2914 6.52269 15.2914C6.51619 15.2914 6.5097 15.2914 6.5032 15.2914C6.4967 15.2914 6.4902 15.2914 6.48369 15.2914C6.47718 15.2914 6.47068 15.2914 6.46416 15.2914C6.45765 15.2914 6.45114 15.2914 6.44462 15.2914C6.4381 15.2914 6.43158 15.2914 6.42506 15.2914C6.41853 15.2914 6.41201 15.2914 6.40548 15.2914C6.39895 15.2914 6.39241 15.2914 6.38588 15.2914C6.37934 15.2914 6.37281 15.2914 6.36627 15.2914C6.35973 15.2914 6.35318 15.2914 6.34664 15.2914C6.34009 15.2914 6.33354 15.2914 6.32699 15.2914C6.32044 15.2914 6.31389 15.2914 6.30733 15.2914C6.30078 15.2914 6.29422 15.2914 6.28766 15.2914C6.2811 15.2914 6.27453 15.2914 6.26797 15.2914C6.2614 15.2914 6.25484 15.2914 6.24827 15.2914C6.2417 15.2914 6.23512 15.2914 6.22855 15.2914C6.22198 15.2914 6.2154 15.2914 6.20882 15.2914C6.20224 15.2914 6.19566 15.2914 6.18908 15.2914C6.1825 15.2914 6.17591 15.2914 6.16933 15.2914C6.16274 15.2914 6.15615 15.2914 6.14956 15.2914C6.14297 15.2914 6.13638 15.2914 6.12978 15.2914C6.12319 15.2914 6.11659 15.2914 6.11 15.2914C6.1034 15.2914 6.0968 15.2914 6.0902 15.2914C6.0836 15.2914 6.077 15.2914 6.07039 15.2914C6.06379 15.2914 6.05718 15.2914 6.05058 15.2914C6.04397 15.2914 6.03736 15.2914 6.03075 15.2914C6.02414 15.2914 6.01753 15.2914 6.01092 15.2914C6.00431 15.2914 5.99769 15.2914 5.99108 15.2914C5.98446 15.2914 5.97784 15.2914 5.97123 15.2914C5.96461 15.2914 5.95799 15.2914 5.95137 15.2914C5.94475 15.2914 5.93813 15.2914 5.93151 15.2914C5.92489 15.2914 5.91826 15.2914 5.91164 15.2914C5.90501 15.2914 5.89839 15.2914 5.89176 15.2914C5.88514 15.2914 5.87851 15.2914 5.87188 15.2914C5.86525 15.2914 5.85863 15.2914 5.852 15.2914C5.84537 15.2914 5.83874 15.2914 5.83211 15.2914C5.82548 15.2914 5.81884 15.2914 5.81221 15.2914C5.80558 15.2914 5.79895 15.2914 5.79231 15.2914C5.78568 15.2914 5.77905 15.2914 5.77241 15.2914C5.76578 15.2914 5.75914 15.2914 5.75251 15.2914C5.74587 15.2914 5.73924 15.2914 5.7326 15.2914C5.72597 15.2914 5.71933 15.2914 5.7127 15.2914C5.70606 15.2914 5.69942 15.2914 5.69279 15.2914C5.68615 15.2914 5.67951 15.2914 5.67288 15.2914C5.66624 15.2914 5.6596 15.2914 5.65297 15.2914C5.64633 15.2914 5.63969 15.2914 5.63305 15.2914C5.62642 15.2914 5.61978 15.2914 5.61314 15.2914C5.60651 15.2914 5.59987 15.2914 5.59323 15.2914C5.5866 15.2914 5.57996 15.2914 5.57333 15.2914C5.56669 15.2914 5.56005 15.2914 5.55342 15.2914C5.54678 15.2914 5.54015 15.2914 5.53351 15.2914C5.52688 15.2914 5.52025 15.2914 5.51361 15.2914C5.50698 15.2914 5.50035 15.2914 5.49371 15.2914C5.48708 15.2914 5.48045 15.2914 5.47382 15.2914C5.46719 15.2914 5.46056 15.2914 5.45393 15.2914C5.4473 15.2914 5.44067 15.2914 5.43404 15.2914C5.42741 15.2914 5.42078 15.2914 5.41416 15.2914C5.40753 15.2914 5.40091 15.2914 5.39428 15.2914C5.38766 15.2914 5.38103 15.2914 5.37441 15.2914C5.36779 15.2914 5.36117 15.2914 5.35454 15.2914C5.34792 15.2914 5.3413 15.2914 5.33469 15.2914C5.32807 15.2914 5.32145 15.2914 5.31483 15.2914C5.30822 15.2914 5.3016 15.2914 5.29499 15.2914C5.28838 15.2914 5.28176 15.2914 5.27515 15.2914C5.26854 15.2914 5.26193 15.2914 5.25533 15.2914C5.24872 15.2914 5.24211 15.2914 5.23551 15.2914C5.2289 15.2914 5.2223 15.2914 5.2157 15.2914C5.2091 15.2914 5.2025 15.2914 5.1959 15.2914C5.1893 15.2914 5.1827 15.2914 5.17611 15.2914C5.16951 15.2914 5.16292 15.2914 5.15633 15.2914C5.14974 15.2914 5.14315 15.2914 5.13656 15.2914C5.12997 15.2914 5.12339 15.2914 5.1168 15.2914C5.11022 15.2914 5.10364 15.2914 5.09706 15.2914C5.09048 15.2914 5.0839 15.2914 5.07732 15.2914C5.07075 15.2914 5.06417 15.2914 5.0576 15.2914C5.05103 15.2914 5.04446 15.2914 5.0379 15.2914C5.03133 15.2914 5.02477 15.2914 5.0182 15.2914C5.01164 15.2914 5.00508 15.2914 4.99852 15.2914C4.99197 15.2914 4.98541 15.2914 4.97886 15.2914C4.97231 15.2914 4.96576 15.2914 4.95921 15.2914C4.95266 15.2914 4.94612 15.2914 4.93958 15.2914C4.93303 15.2914 4.92649 15.2914 4.91996 15.2914C4.91342 15.2914 4.90689 15.2914 4.90036 15.2914C4.89383 15.2914 4.8873 15.2914 4.88077 15.2914C4.87425 15.2914 4.86772 15.2914 4.8612 15.2914C4.85468 15.2914 4.84817 15.2914 4.84165 15.2914C4.83514 15.2914 4.82863 15.2914 4.82212 15.2914C4.81561 15.2914 4.80911 15.2914 4.80261 15.2914C4.79611 15.2914 4.78961 15.2914 4.78311 15.2914C4.77662 15.2914 4.77013 15.2914 4.76364 15.2914C4.75715 15.2914 4.75066 15.2914 4.74418 15.2914C4.7377 15.2914 4.73122 15.2914 4.72475 15.2914C4.71827 15.2914 4.7118 15.2914 4.70533 15.2914C4.69886 15.2914 4.6924 15.2914 4.68594 15.2914C4.67948 15.2914 4.67302 15.2914 4.66657 15.2914C4.66011 15.2914 4.65366 15.2914 4.64722 15.2914C4.64077 15.2914 4.63433 15.2914 4.62789 15.2914C4.62145 15.2914 4.61502 15.2914 4.60859 15.2914C4.60216 15.2914 4.59573 15.2914 4.58931 15.2914C4.58288 15.2914 4.57647 15.2914 4.57005 15.2914C4.56364 15.2914 4.55722 15.2914 4.55082 15.2914C4.54441 15.2914 4.53801 15.2914 4.53161 15.2914C4.52521 15.2914 4.51882 15.2914 4.51243 15.2914C4.50604 15.2914 4.49965 15.2914 4.49327 15.2914C4.48689 15.2914 4.48051 15.2914 4.47414 15.2914C4.46777 15.2914 4.4614 15.2914 4.45504 15.2914C4.44867 15.2914 4.44231 15.2914 4.43596 15.2914C4.4296 15.2914 4.42325 15.2914 4.41691 15.2914C4.41056 15.2914 4.40422 15.2914 4.39789 15.2914C4.39155 15.2914 4.38522 15.2914 4.37889 15.2914C4.37257 15.2914 4.36624 15.2914 4.35993 15.2914C4.35361 15.2914 4.3473 15.2914 4.34099 15.2914C4.33468 15.2914 4.32838 15.2914 4.32209 15.2914C4.31579 15.2914 4.3095 15.2914 4.30321 15.2914C4.29692 15.2914 4.29064 15.2914 4.28436 15.2914C4.27809 15.2914 4.27181 15.2914 4.26555 15.2914C4.25928 15.2914 4.25302 15.2914 4.24676 15.2914C4.24051 15.2914 4.23426 15.2914 4.22801 15.2914C4.22177 15.2914 4.21553 15.2914 4.20929 15.2914C4.20306 15.2914 4.19683 15.2914 4.19061 15.2914C4.18438 15.2914 4.17817 15.2914 4.17195 15.2914C4.16574 15.2914 4.15953 15.2914 4.15333 15.2914C4.14713 15.2914 4.14094 15.2914 4.13475 15.2914C4.12856 15.2914 4.12237 15.2914 4.1162 15.2914C4.11002 15.2914 4.10385 15.2914 4.09768 15.2914C4.09151 15.2914 4.08535 15.2914 4.0792 15.2914C4.07304 15.2914 4.0669 15.2914 4.06075 15.2914C4.05461 15.2914 4.04847 15.2914 4.04234 15.2914C4.03621 15.2914 4.03009 15.2914 4.02397 15.2914C4.01785 15.2914 4.01174 15.2914 4.00564 15.2914C3.99953 15.2914 3.99343 15.2914 3.98734 15.2914C3.98125 15.2914 3.97516 15.2914 3.96908 15.2914C3.963 15.2914 3.95693 15.2914 3.95086 15.2914C3.94479 15.2914 3.93873 15.2914 3.93268 15.2914C3.92662 15.2914 3.92057 15.2914 3.91453 15.2914C3.90849 15.2914 3.90246 15.2914 3.89643 15.2914C3.8904 15.2914 3.88438 15.2914 3.87837 15.2914C3.87235 15.2914 3.86635 15.2914 3.86034 15.2914C3.85434 15.2914 3.84835 15.2914 3.84236 15.2914C3.83638 15.2914 3.8304 15.2914 3.82442 15.2914C3.81845 15.2914 3.81249 15.2914 3.80653 15.2914C3.80057 15.2914 3.79462 15.2914 3.78867 15.2914C3.78273 15.2914 3.77679 15.2914 3.77086 15.2914C3.76493 15.2914 3.75901 15.2914 3.75309 15.2914C3.74718 15.2914 3.74127 15.2914 3.73537 15.2914C3.72946 15.2914 3.72357 15.2914 3.71769 15.2914C3.7118 15.2914 3.70592 15.2914 3.70005 15.2914C3.69418 15.2914 3.68831 15.2914 3.68246 15.2914C3.6766 15.2914 3.67075 15.2914 3.66491 15.2914C3.65907 15.2914 3.65324 15.2914 3.64741 15.2914C3.64159 15.2914 3.63577 15.2914 3.62996 15.2914C3.62415 15.2914 3.61835 15.2914 3.61255 15.2914C3.60676 15.2914 3.60097 15.2914 3.59519 15.2914C3.58942 15.2914 3.58365 15.2914 3.57788 15.2914C3.57212 15.2914 3.56637 15.2914 3.56062 15.2914C3.55487 15.2914 3.54914 15.2914 3.54341 15.2914C3.53768 15.2914 3.53196 15.2914 3.52624 15.2914C3.52053 15.2914 3.51482 15.2914 3.50913 15.2914C3.50343 15.2914 3.49774 15.2914 3.49206 15.2914C3.48638 15.2914 3.48071 15.2914 3.47505 15.2914C3.46938 15.2914 3.46373 15.2914 3.45808 15.2914C3.45243 15.2914 3.4468 15.2914 3.44117 15.2914C3.43554 15.2914 3.42992 15.2914 3.42431 15.2914C3.4187 15.2914 3.41309 15.2914 3.4075 15.2914C3.4019 15.2914 3.39632 15.2914 3.39074 15.2914C3.38516 15.2914 3.3796 15.2914 3.37404 15.2914C3.36848 15.2914 3.36293 15.2914 3.35739 15.2914C3.35185 15.2914 3.34632 15.2914 3.34079 15.2914C3.33527 15.2914 3.32976 15.2914 3.32425 15.2914C3.31875 15.2914 3.31325 15.2914 3.30776 15.2914C3.30228 15.2914 3.2968 15.2914 3.29133 15.2914C3.28587 15.2914 3.28041 15.2914 3.27496 15.2914C3.26951 15.2914 3.26407 15.2914 3.25864 15.2914C3.25321 15.2914 3.24779 15.2914 3.24238 15.2914C3.23696 15.2914 3.23156 15.2914 3.22617 15.2914C3.22078 15.2914 3.21539 15.2914 3.21002 15.2914C3.20465 15.2914 3.19929 15.2914 3.19393 15.2914C3.18858 15.2914 3.18323 15.2914 3.1779 15.2914C3.17257 15.2914 3.16724 15.2914 3.16193 15.2914C3.15661 15.2914 3.15131 15.2914 3.14601 15.2914C3.14072 15.2914 3.13543 15.2914 3.13016 15.2914C3.12488 15.2914 3.11962 15.2914 3.11437 15.2914C3.10911 15.2914 3.10387 15.2914 3.09863 15.2914C3.0934 15.2914 3.08817 15.2914 3.08296 15.2914C3.07775 15.2914 3.07254 15.2914 3.06735 15.2914C3.06216 15.2914 3.05697 15.2914 3.0518 15.2914C3.04663 15.2914 3.04147 15.2914 3.03631 15.2914C3.03116 15.2914 3.02602 15.2914 3.02089 15.2914C3.01576 15.2914 3.01064 15.2914 3.00553 15.2914C3.00042 15.2914 2.99532 15.2914 2.99023 15.2914C2.98515 15.2914 2.98007 15.2914 2.975 15.2914C2.96994 15.2914 2.96488 15.2914 2.95983 15.2914C2.95479 15.2914 2.94976 15.2914 2.94473 15.2914C2.93971 15.2914 2.9347 15.2914 2.92969 15.2914C2.92469 15.2914 2.9197 15.2914 2.91472 15.2914C2.90974 15.2914 2.90478 15.2914 2.89982 15.2914C2.89486 15.2914 2.88992 15.2914 2.88498 15.2914C2.88005 15.2914 2.87512 15.2914 2.87021 15.2914C2.8653 15.2914 2.8604 15.2914 2.85551 15.2914C2.85062 15.2914 2.84574 15.2914 2.84087 15.2914C2.836 15.2914 2.83115 15.2914 2.8263 15.2914C2.82146 15.2914 2.81663 15.2914 2.81181 15.2914C2.80699 15.2914 2.80218 15.2914 2.79738 15.2914C2.79258 15.2914 2.7878 15.2914 2.78302 15.2914C2.77825 15.2914 2.77348 15.2914 2.76873 15.2914C2.76398 15.2914 2.75924 15.2914 2.75452 15.2914C2.74979 15.2914 2.74507 15.2914 2.74037 15.2914C2.73567 15.2914 2.73098 15.2914 2.7263 15.2914C2.72162 15.2914 2.71695 15.2914 2.7123 15.2914C2.70764 15.2914 2.703 15.2914 2.69837 15.2914C2.69374 15.2914 2.68912 15.2914 2.68451 15.2914C2.6799 15.2914 2.67531 15.2914 2.67073 15.2914C2.66615 15.2914 2.66158 15.2914 2.65702 15.2914C2.65246 15.2914 2.64792 15.2914 2.64338 15.2914C2.63885 15.2914 2.63433 15.2914 2.62982 15.2914C2.62532 15.2914 2.62082 15.2914 2.61634 15.2914C2.61186 15.2914 2.60739 15.2914 2.60293 15.2914C2.59847 15.2914 2.59403 15.2914 2.5896 15.2914C2.58517 15.2914 2.58075 15.2914 2.57634 15.2914C2.57194 15.2914 2.56754 15.2914 2.56316 15.2914C2.55878 15.2914 2.55442 15.2914 2.55006 15.2914C2.54571 15.2914 2.54137 15.2914 2.53704 15.2914C2.53271 15.2914 2.52839 15.2914 2.52409 15.2914C2.51979 15.2914 2.5155 15.2914 2.51123 15.2914C2.50695 15.2914 2.50269 15.2914 2.49844 15.2914C2.49419 15.2914 2.48995 15.2914 2.48573 15.2914C2.48151 15.2914 2.4773 15.2914 2.4731 15.2914C2.46891 15.2914 2.46472 15.2914 2.46055 15.2914C2.45639 15.2914 2.45223 15.2914 2.44809 15.2914C2.44395 15.2914 2.43982 15.2914 2.4357 15.2914C2.43159 15.2914 2.42749 15.2914 2.4234 15.2914C2.41931 15.2914 2.41524 15.2914 2.41118 15.2914C2.40712 15.2914 2.40307 15.2914 2.39904 15.2914C2.39501 15.2914 2.39099 15.2914 2.38699 15.2914C2.38298 15.2914 2.37899 15.2914 2.37502 15.2914C2.37104 15.2914 2.36708 15.2914 2.36313 15.2914C2.35918 15.2914 2.35525 15.2914 2.35133 15.2914C2.34741 15.2914 2.3435 15.2914 2.33961 15.2914C2.33572 15.2914 2.33184 15.2914 2.32798 15.2914C2.32411 15.2914 2.32027 15.2914 2.31643 15.2914C2.3126 15.2914 2.30878 15.2914 2.30497 15.2914C2.30117 15.2914 2.29738 15.2914 2.2936 15.2914C2.28982 15.2914 2.28606 15.2914 2.28231 15.2914C2.27857 15.2914 2.27483 15.2914 2.27111 15.2914C2.2674 15.2914 2.26369 15.2914 2.26 15.2914C2.25632 15.2914 2.25264 15.2914 2.24898 15.2914C2.24532 15.2914 2.24168 15.2914 2.23805 15.2914C2.23442 15.2914 2.23081 15.2914 2.22721 15.2914C2.22361 15.2914 2.22002 15.2914 2.21645 15.2914C2.21288 15.2914 2.20933 15.2914 2.20579 15.2914C2.20225 15.2914 2.19873 15.2914 2.19522 15.2914C2.19171 15.2914 2.18821 15.2914 2.18474 15.2914C2.18126 15.2914 2.17779 15.2914 2.17435 15.2914C2.1709 15.2914 2.16747 15.2914 2.16405 15.2914C2.16063 15.2914 2.15723 15.2914 2.15384 15.2914C2.15046 15.2914 2.14709 15.2914 2.14373 15.2914C2.14038 15.2914 2.13704 15.2914 2.13371 15.2914C2.13039 15.2914 2.12708 15.2914 2.12379 15.2914C2.12049 15.2914 2.11722 15.2914 2.11396 15.2914C2.1107 15.2914 2.10745 15.2914 2.10422 15.2914C2.10099 15.2914 2.09778 15.2914 2.09458 15.2914C2.09138 15.2914 2.0882 15.2914 2.08503 15.2914C2.08187 15.2914 2.07872 15.2914 2.07559 15.2914C2.07245 15.2914 2.06933 15.2914 2.06623 15.2914C2.06313 15.2914 2.06005 15.2914 2.05698 15.2914C2.05391 15.2914 2.05085 15.2914 2.04782 15.2914C2.04478 15.2914 2.04176 15.2914 2.03876 15.2914C2.03575 15.2914 2.03277 15.2914 2.0298 15.2914C2.02682 15.2914 2.02387 15.2914 2.02093 15.2914C2.01799 15.2914 2.01507 15.2914 2.01217 15.2914C2.00926 15.2914 2.00637 15.2914 2.0035 15.2914C2.00063 15.2914 1.99778 15.2914 1.99494 15.2914C1.9921 15.2914 1.98928 15.2914 1.98647 15.2914C1.98367 15.2914 1.98088 15.2914 1.97811 15.2914C1.97534 15.2914 1.97258 15.2914 1.96985 15.2914C1.96711 15.2914 1.96439 15.2914 1.96169 15.2914C1.95898 15.2914 1.9563 15.2914 1.95363 15.2914C1.95096 15.2914 1.94831 15.2914 1.94567 15.2914C1.94304 15.2914 1.94042 15.2914 1.93782 15.2914C1.93522 15.2914 1.93264 15.2914 1.93007 15.2914C1.92751 15.2914 1.92496 15.2914 1.92243 15.2914C1.9199 15.2914 1.91738 15.2914 1.91489 15.2914C1.91239 15.2914 1.90991 15.2914 1.90745 15.2914C1.90499 15.2914 1.90255 15.2914 1.90012 15.2914C1.8977 15.2914 1.89529 15.2914 1.8929 15.2914C1.89051 15.2914 1.88814 15.2914 1.88578 15.2914C1.88343 15.2914 1.88109 15.2914 1.87877 15.2914C1.87645 15.2914 1.87415 15.2914 1.87186 15.2914C1.86958 15.2914 1.86732 15.2914 1.86507 15.2914C1.86282 15.2914 1.86059 15.2914 1.85838 15.2914C1.85617 15.2914 1.85397 15.2914 1.8518 15.2914C1.84962 15.2914 1.84747 15.2914 1.84533 15.2914C1.84319 15.2914 1.84107 15.2914 1.83897 15.2914C1.83686 15.2914 1.83478 15.2914 1.83271 15.2914C1.83065 15.2914 1.8286 15.2914 1.82657 15.2914C1.82454 15.2914 1.82253 15.2914 1.82054 15.2914C1.81855 15.2914 1.81658 15.2914 1.81462 15.2914C1.81267 15.2914 1.81073 15.2914 1.80881 15.2914C1.80689 15.2914 1.805 15.2914 1.80312 15.2914C1.80124 15.2914 1.79937 15.2914 1.79753 15.2914C1.79569 15.2914 1.79387 15.2914 1.79206 15.2914C1.79026 15.2914 1.78847 15.2914 1.7867 15.2914C1.78494 15.2914 1.78319 15.2914 1.78146 15.2914C1.77973 15.2914 1.77802 15.2914 1.77633 15.2914C1.77464 15.2914 1.77297 15.2914 1.77131 15.2914C1.76966 15.2914 1.76803 15.2914 1.76641 15.2914C1.7648 15.2914 1.7632 15.2914 1.76163 15.2914C1.76005 15.2914 1.7585 15.2914 1.75696 15.2914C1.75542 15.2914 1.7539 15.2914 1.75241 15.2914C1.75091 15.2914 1.74943 15.2914 1.74797 15.2914C1.74651 15.2914 1.74507 15.2914 1.74365 15.2914C1.74223 15.2914 1.74083 15.2914 1.73945 15.2914C1.73807 15.2914 1.73671 15.2914 1.73537 15.2914C1.73403 15.2914 1.73271 15.2914 1.73141 15.2914C1.7301 15.2914 1.72882 15.2914 1.72756 15.2914C1.7263 15.2914 1.72506 15.2914 1.72384 15.2914C1.72261 15.2914 1.72141 15.2914 1.72023 15.2914C1.71905 15.2914 1.71789 15.2914 1.71675 15.2914C1.71561 15.2914 1.71448 15.2914 1.71338 15.2914C1.71228 15.2914 1.7112 15.2914 1.71014 15.2914C1.70908 15.2914 1.70804 15.2914 1.70702 15.2914C1.706 15.2914 1.705 15.2914 1.70402 15.2914C1.70304 15.2914 1.70208 15.2914 1.70115 15.2914C1.70021 15.2914 1.69929 15.2914 1.69839 15.2914C1.6975 15.2914 1.69662 15.2914 1.69576 15.2914C1.69491 15.2914 1.69407 15.2914 1.69326 15.2914C1.69244 15.2914 1.69165 15.2914 1.69088 15.2914C1.6901 15.2914 1.68935 15.2914 1.68862 15.2914C1.68789 15.2914 1.68718 15.2914 1.68649 15.2914C1.6858 15.2914 1.68513 15.2914 1.68448 15.2914C1.68384 15.2914 1.68321 15.2914 1.6826 15.2914C1.682 15.2914 1.68142 15.2914 1.68085 15.2914C1.68029 15.2914 1.67975 15.2914 1.67923 15.2914C1.67871 15.2914 1.67821 15.2914 1.67773 15.2914C1.67725 15.2914 1.67679 15.2914 1.67636 15.2914C1.67592 15.2914 1.67551 15.2914 1.67512 15.2914C1.67472 15.2914 1.67435 15.2914 1.674 15.2914C1.67365 15.2914 1.67333 15.2914 1.67302 15.2914C1.67271 15.2914 1.67243 15.2914 1.67217 15.2914C1.6719 15.2914 1.67166 15.2914 1.67144 15.2914C1.67122 15.2914 1.67103 15.2914 1.67085 15.2914C1.67067 15.2914 1.67052 15.2914 1.67039 15.2914C1.67026 15.2914 1.67015 15.2914 1.67006 15.2914C1.66997 15.2914 1.6699 15.2914 1.66986 15.2914C1.66981 15.2914 1.66979 15.2914 1.66979 16.1571C1.66979 17.0228 1.66981 17.0228 1.66986 17.0228C1.6699 17.0228 1.66997 17.0228 1.67006 17.0228C1.67015 17.0228 1.67026 17.0228 1.67039 17.0228C1.67052 17.0228 1.67067 17.0228 1.67085 17.0228C1.67103 17.0228 1.67122 17.0228 1.67144 17.0228C1.67166 17.0228 1.6719 17.0228 1.67217 17.0228C1.67243 17.0228 1.67271 17.0228 1.67302 17.0228C1.67333 17.0228 1.67365 17.0228 1.674 17.0228C1.67435 17.0228 1.67472 17.0228 1.67512 17.0228C1.67551 17.0228 1.67592 17.0228 1.67636 17.0228C1.67679 17.0228 1.67725 17.0228 1.67773 17.0228C1.67821 17.0228 1.67871 17.0228 1.67923 17.0228C1.67975 17.0228 1.68029 17.0228 1.68085 17.0228C1.68142 17.0228 1.682 17.0228 1.6826 17.0228C1.68321 17.0228 1.68384 17.0228 1.68448 17.0228C1.68513 17.0228 1.6858 17.0228 1.68649 17.0228C1.68718 17.0228 1.68789 17.0228 1.68862 17.0228C1.68935 17.0228 1.6901 17.0228 1.69088 17.0228C1.69165 17.0228 1.69244 17.0228 1.69326 17.0228C1.69407 17.0228 1.69491 17.0228 1.69576 17.0228C1.69662 17.0228 1.6975 17.0228 1.69839 17.0228C1.69929 17.0228 1.70021 17.0228 1.70115 17.0228C1.70208 17.0228 1.70304 17.0228 1.70402 17.0228C1.705 17.0228 1.706 17.0228 1.70702 17.0228C1.70804 17.0228 1.70908 17.0228 1.71014 17.0228C1.7112 17.0228 1.71228 17.0228 1.71338 17.0228C1.71448 17.0228 1.71561 17.0228 1.71675 17.0228C1.71789 17.0228 1.71905 17.0228 1.72023 17.0228C1.72141 17.0228 1.72261 17.0228 1.72384 17.0228C1.72506 17.0228 1.7263 17.0228 1.72756 17.0228C1.72882 17.0228 1.7301 17.0228 1.73141 17.0228C1.73271 17.0228 1.73403 17.0228 1.73537 17.0228C1.73671 17.0228 1.73807 17.0228 1.73945 17.0228C1.74083 17.0228 1.74223 17.0228 1.74365 17.0228C1.74507 17.0228 1.74651 17.0228 1.74797 17.0228C1.74943 17.0228 1.75091 17.0228 1.75241 17.0228C1.7539 17.0228 1.75542 17.0228 1.75696 17.0228C1.7585 17.0228 1.76005 17.0228 1.76163 17.0228C1.7632 17.0228 1.7648 17.0228 1.76641 17.0228C1.76803 17.0228 1.76966 17.0228 1.77131 17.0228C1.77297 17.0228 1.77464 17.0228 1.77633 17.0228C1.77802 17.0228 1.77973 17.0228 1.78146 17.0228C1.78319 17.0228 1.78494 17.0228 1.7867 17.0228C1.78847 17.0228 1.79026 17.0228 1.79206 17.0228C1.79387 17.0228 1.79569 17.0228 1.79753 17.0228C1.79937 17.0228 1.80124 17.0228 1.80312 17.0228C1.805 17.0228 1.80689 17.0228 1.80881 17.0228C1.81073 17.0228 1.81267 17.0228 1.81462 17.0228C1.81658 17.0228 1.81855 17.0228 1.82054 17.0228C1.82253 17.0228 1.82454 17.0228 1.82657 17.0228C1.8286 17.0228 1.83065 17.0228 1.83271 17.0228C1.83478 17.0228 1.83686 17.0228 1.83897 17.0228C1.84107 17.0228 1.84319 17.0228 1.84533 17.0228C1.84747 17.0228 1.84962 17.0228 1.8518 17.0228C1.85397 17.0228 1.85617 17.0228 1.85838 17.0228C1.86059 17.0228 1.86282 17.0228 1.86507 17.0228C1.86732 17.0228 1.86958 17.0228 1.87186 17.0228C1.87415 17.0228 1.87645 17.0228 1.87877 17.0228C1.88109 17.0228 1.88343 17.0228 1.88578 17.0228C1.88814 17.0228 1.89051 17.0228 1.8929 17.0228C1.89529 17.0228 1.8977 17.0228 1.90012 17.0228C1.90255 17.0228 1.90499 17.0228 1.90745 17.0228C1.90991 17.0228 1.91239 17.0228 1.91489 17.0228C1.91738 17.0228 1.9199 17.0228 1.92243 17.0228C1.92496 17.0228 1.92751 17.0228 1.93007 17.0228C1.93264 17.0228 1.93522 17.0228 1.93782 17.0228C1.94042 17.0228 1.94304 17.0228 1.94567 17.0228C1.94831 17.0228 1.95096 17.0228 1.95363 17.0228C1.9563 17.0228 1.95898 17.0228 1.96169 17.0228C1.96439 17.0228 1.96711 17.0228 1.96985 17.0228C1.97258 17.0228 1.97534 17.0228 1.97811 17.0228C1.98088 17.0228 1.98367 17.0228 1.98647 17.0228C1.98928 17.0228 1.9921 17.0228 1.99494 17.0228C1.99778 17.0228 2.00063 17.0228 2.0035 17.0228C2.00637 17.0228 2.00926 17.0228 2.01217 17.0228C2.01507 17.0228 2.01799 17.0228 2.02093 17.0228C2.02387 17.0228 2.02682 17.0228 2.0298 17.0228C2.03277 17.0228 2.03575 17.0228 2.03876 17.0228C2.04176 17.0228 2.04478 17.0228 2.04782 17.0228C2.05085 17.0228 2.05391 17.0228 2.05698 17.0228C2.06005 17.0228 2.06313 17.0228 2.06623 17.0228C2.06933 17.0228 2.07245 17.0228 2.07559 17.0228C2.07872 17.0228 2.08187 17.0228 2.08503 17.0228C2.0882 17.0228 2.09138 17.0228 2.09458 17.0228C2.09778 17.0228 2.10099 17.0228 2.10422 17.0228C2.10745 17.0228 2.1107 17.0228 2.11396 17.0228C2.11722 17.0228 2.12049 17.0228 2.12379 17.0228C2.12708 17.0228 2.13039 17.0228 2.13371 17.0228C2.13704 17.0228 2.14038 17.0228 2.14373 17.0228C2.14709 17.0228 2.15046 17.0228 2.15384 17.0228C2.15723 17.0228 2.16063 17.0228 2.16405 17.0228C2.16747 17.0228 2.1709 17.0228 2.17435 17.0228C2.17779 17.0228 2.18126 17.0228 2.18474 17.0228C2.18821 17.0228 2.19171 17.0228 2.19522 17.0228C2.19873 17.0228 2.20225 17.0228 2.20579 17.0228C2.20933 17.0228 2.21288 17.0228 2.21645 17.0228C2.22002 17.0228 2.22361 17.0228 2.22721 17.0228C2.23081 17.0228 2.23442 17.0228 2.23805 17.0228C2.24168 17.0228 2.24532 17.0228 2.24898 17.0228C2.25264 17.0228 2.25632 17.0228 2.26 17.0228C2.26369 17.0228 2.2674 17.0228 2.27111 17.0228C2.27483 17.0228 2.27857 17.0228 2.28231 17.0228C2.28606 17.0228 2.28982 17.0228 2.2936 17.0228C2.29738 17.0228 2.30117 17.0228 2.30497 17.0228C2.30878 17.0228 2.3126 17.0228 2.31643 17.0228C2.32027 17.0228 2.32411 17.0228 2.32798 17.0228C2.33184 17.0228 2.33572 17.0228 2.33961 17.0228C2.3435 17.0228 2.34741 17.0228 2.35133 17.0228C2.35525 17.0228 2.35918 17.0228 2.36313 17.0228C2.36708 17.0228 2.37104 17.0228 2.37502 17.0228C2.37899 17.0228 2.38298 17.0228 2.38699 17.0228C2.39099 17.0228 2.39501 17.0228 2.39904 17.0228C2.40307 17.0228 2.40712 17.0228 2.41118 17.0228C2.41524 17.0228 2.41931 17.0228 2.4234 17.0228C2.42749 17.0228 2.43159 17.0228 2.4357 17.0228C2.43982 17.0228 2.44395 17.0228 2.44809 17.0228C2.45223 17.0228 2.45639 17.0228 2.46055 17.0228C2.46472 17.0228 2.46891 17.0228 2.4731 17.0228C2.4773 17.0228 2.48151 17.0228 2.48573 17.0228C2.48995 17.0228 2.49419 17.0228 2.49844 17.0228C2.50269 17.0228 2.50695 17.0228 2.51123 17.0228C2.5155 17.0228 2.51979 17.0228 2.52409 17.0228C2.52839 17.0228 2.53271 17.0228 2.53704 17.0228C2.54137 17.0228 2.54571 17.0228 2.55006 17.0228C2.55442 17.0228 2.55878 17.0228 2.56316 17.0228C2.56754 17.0228 2.57194 17.0228 2.57634 17.0228C2.58075 17.0228 2.58517 17.0228 2.5896 17.0228C2.59403 17.0228 2.59847 17.0228 2.60293 17.0228C2.60739 17.0228 2.61186 17.0228 2.61634 17.0228C2.62082 17.0228 2.62532 17.0228 2.62982 17.0228C2.63433 17.0228 2.63885 17.0228 2.64338 17.0228C2.64792 17.0228 2.65246 17.0228 2.65702 17.0228C2.66158 17.0228 2.66615 17.0228 2.67073 17.0228C2.67531 17.0228 2.6799 17.0228 2.68451 17.0228C2.68912 17.0228 2.69374 17.0228 2.69837 17.0228C2.703 17.0228 2.70764 17.0228 2.7123 17.0228C2.71695 17.0228 2.72162 17.0228 2.7263 17.0228C2.73098 17.0228 2.73567 17.0228 2.74037 17.0228C2.74507 17.0228 2.74979 17.0228 2.75452 17.0228C2.75924 17.0228 2.76398 17.0228 2.76873 17.0228C2.77348 17.0228 2.77825 17.0228 2.78302 17.0228C2.7878 17.0228 2.79258 17.0228 2.79738 17.0228C2.80218 17.0228 2.80699 17.0228 2.81181 17.0228C2.81663 17.0228 2.82146 17.0228 2.8263 17.0228C2.83115 17.0228 2.836 17.0228 2.84087 17.0228C2.84574 17.0228 2.85062 17.0228 2.85551 17.0228C2.8604 17.0228 2.8653 17.0228 2.87021 17.0228C2.87512 17.0228 2.88005 17.0228 2.88498 17.0228C2.88992 17.0228 2.89486 17.0228 2.89982 17.0228C2.90478 17.0228 2.90974 17.0228 2.91472 17.0228C2.9197 17.0228 2.92469 17.0228 2.92969 17.0228C2.9347 17.0228 2.93971 17.0228 2.94473 17.0228C2.94976 17.0228 2.95479 17.0228 2.95983 17.0228C2.96488 17.0228 2.96994 17.0228 2.975 17.0228C2.98007 17.0228 2.98515 17.0228 2.99023 17.0228C2.99532 17.0228 3.00042 17.0228 3.00553 17.0228C3.01064 17.0228 3.01576 17.0228 3.02089 17.0228C3.02602 17.0228 3.03116 17.0228 3.03631 17.0228C3.04147 17.0228 3.04663 17.0228 3.0518 17.0228C3.05697 17.0228 3.06216 17.0228 3.06735 17.0228C3.07254 17.0228 3.07775 17.0228 3.08296 17.0228C3.08817 17.0228 3.0934 17.0228 3.09863 17.0228C3.10387 17.0228 3.10911 17.0228 3.11437 17.0228C3.11962 17.0228 3.12488 17.0228 3.13016 17.0228C3.13543 17.0228 3.14072 17.0228 3.14601 17.0228C3.15131 17.0228 3.15661 17.0228 3.16193 17.0228C3.16724 17.0228 3.17257 17.0228 3.1779 17.0228C3.18323 17.0228 3.18858 17.0228 3.19393 17.0228C3.19929 17.0228 3.20465 17.0228 3.21002 17.0228C3.21539 17.0228 3.22078 17.0228 3.22617 17.0228C3.23156 17.0228 3.23696 17.0228 3.24238 17.0228C3.24779 17.0228 3.25321 17.0228 3.25864 17.0228C3.26407 17.0228 3.26951 17.0228 3.27496 17.0228C3.28041 17.0228 3.28587 17.0228 3.29133 17.0228C3.2968 17.0228 3.30228 17.0228 3.30776 17.0228C3.31325 17.0228 3.31875 17.0228 3.32425 17.0228C3.32976 17.0228 3.33527 17.0228 3.34079 17.0228C3.34632 17.0228 3.35185 17.0228 3.35739 17.0228C3.36293 17.0228 3.36848 17.0228 3.37404 17.0228C3.3796 17.0228 3.38516 17.0228 3.39074 17.0228C3.39632 17.0228 3.4019 17.0228 3.4075 17.0228C3.41309 17.0228 3.4187 17.0228 3.42431 17.0228C3.42992 17.0228 3.43554 17.0228 3.44117 17.0228C3.4468 17.0228 3.45243 17.0228 3.45808 17.0228C3.46373 17.0228 3.46938 17.0228 3.47505 17.0228C3.48071 17.0228 3.48638 17.0228 3.49206 17.0228C3.49774 17.0228 3.50343 17.0228 3.50913 17.0228C3.51482 17.0228 3.52053 17.0228 3.52624 17.0228C3.53196 17.0228 3.53768 17.0228 3.54341 17.0228C3.54914 17.0228 3.55487 17.0228 3.56062 17.0228C3.56637 17.0228 3.57212 17.0228 3.57788 17.0228C3.58365 17.0228 3.58942 17.0228 3.59519 17.0228C3.60097 17.0228 3.60676 17.0228 3.61255 17.0228C3.61835 17.0228 3.62415 17.0228 3.62996 17.0228C3.63577 17.0228 3.64159 17.0228 3.64741 17.0228C3.65324 17.0228 3.65907 17.0228 3.66491 17.0228C3.67075 17.0228 3.6766 17.0228 3.68246 17.0228C3.68831 17.0228 3.69418 17.0228 3.70005 17.0228C3.70592 17.0228 3.7118 17.0228 3.71769 17.0228C3.72357 17.0228 3.72946 17.0228 3.73537 17.0228C3.74127 17.0228 3.74718 17.0228 3.75309 17.0228C3.75901 17.0228 3.76493 17.0228 3.77086 17.0228C3.77679 17.0228 3.78273 17.0228 3.78867 17.0228C3.79462 17.0228 3.80057 17.0228 3.80653 17.0228C3.81249 17.0228 3.81845 17.0228 3.82442 17.0228C3.8304 17.0228 3.83638 17.0228 3.84236 17.0228C3.84835 17.0228 3.85434 17.0228 3.86034 17.0228C3.86635 17.0228 3.87235 17.0228 3.87837 17.0228C3.88438 17.0228 3.8904 17.0228 3.89643 17.0228C3.90246 17.0228 3.90849 17.0228 3.91453 17.0228C3.92057 17.0228 3.92662 17.0228 3.93268 17.0228C3.93873 17.0228 3.94479 17.0228 3.95086 17.0228C3.95693 17.0228 3.963 17.0228 3.96908 17.0228C3.97516 17.0228 3.98125 17.0228 3.98734 17.0228C3.99343 17.0228 3.99953 17.0228 4.00564 17.0228C4.01174 17.0228 4.01785 17.0228 4.02397 17.0228C4.03009 17.0228 4.03621 17.0228 4.04234 17.0228C4.04847 17.0228 4.05461 17.0228 4.06075 17.0228C4.0669 17.0228 4.07304 17.0228 4.0792 17.0228C4.08535 17.0228 4.09151 17.0228 4.09768 17.0228C4.10385 17.0228 4.11002 17.0228 4.1162 17.0228C4.12237 17.0228 4.12856 17.0228 4.13475 17.0228C4.14094 17.0228 4.14713 17.0228 4.15333 17.0228C4.15953 17.0228 4.16574 17.0228 4.17195 17.0228C4.17817 17.0228 4.18438 17.0228 4.19061 17.0228C4.19683 17.0228 4.20306 17.0228 4.20929 17.0228C4.21553 17.0228 4.22177 17.0228 4.22801 17.0228C4.23426 17.0228 4.24051 17.0228 4.24676 17.0228C4.25302 17.0228 4.25928 17.0228 4.26555 17.0228C4.27181 17.0228 4.27809 17.0228 4.28436 17.0228C4.29064 17.0228 4.29692 17.0228 4.30321 17.0228C4.3095 17.0228 4.31579 17.0228 4.32209 17.0228C4.32838 17.0228 4.33468 17.0228 4.34099 17.0228C4.3473 17.0228 4.35361 17.0228 4.35993 17.0228C4.36624 17.0228 4.37257 17.0228 4.37889 17.0228C4.38522 17.0228 4.39155 17.0228 4.39789 17.0228C4.40422 17.0228 4.41056 17.0228 4.41691 17.0228C4.42325 17.0228 4.4296 17.0228 4.43596 17.0228C4.44231 17.0228 4.44867 17.0228 4.45504 17.0228C4.4614 17.0228 4.46777 17.0228 4.47414 17.0228C4.48051 17.0228 4.48689 17.0228 4.49327 17.0228C4.49965 17.0228 4.50604 17.0228 4.51243 17.0228C4.51882 17.0228 4.52521 17.0228 4.53161 17.0228C4.53801 17.0228 4.54441 17.0228 4.55082 17.0228C4.55722 17.0228 4.56364 17.0228 4.57005 17.0228C4.57647 17.0228 4.58288 17.0228 4.58931 17.0228C4.59573 17.0228 4.60216 17.0228 4.60859 17.0228C4.61502 17.0228 4.62145 17.0228 4.62789 17.0228C4.63433 17.0228 4.64077 17.0228 4.64722 17.0228C4.65366 17.0228 4.66011 17.0228 4.66657 17.0228C4.67302 17.0228 4.67948 17.0228 4.68594 17.0228C4.6924 17.0228 4.69886 17.0228 4.70533 17.0228C4.7118 17.0228 4.71827 17.0228 4.72475 17.0228C4.73122 17.0228 4.7377 17.0228 4.74418 17.0228C4.75066 17.0228 4.75715 17.0228 4.76364 17.0228C4.77013 17.0228 4.77662 17.0228 4.78311 17.0228C4.78961 17.0228 4.79611 17.0228 4.80261 17.0228C4.80911 17.0228 4.81561 17.0228 4.82212 17.0228C4.82863 17.0228 4.83514 17.0228 4.84165 17.0228C4.84817 17.0228 4.85468 17.0228 4.8612 17.0228C4.86772 17.0228 4.87425 17.0228 4.88077 17.0228C4.8873 17.0228 4.89383 17.0228 4.90036 17.0228C4.90689 17.0228 4.91342 17.0228 4.91996 17.0228C4.92649 17.0228 4.93303 17.0228 4.93958 17.0228C4.94612 17.0228 4.95266 17.0228 4.95921 17.0228C4.96576 17.0228 4.97231 17.0228 4.97886 17.0228C4.98541 17.0228 4.99197 17.0228 4.99852 17.0228C5.00508 17.0228 5.01164 17.0228 5.0182 17.0228C5.02477 17.0228 5.03133 17.0228 5.0379 17.0228C5.04446 17.0228 5.05103 17.0228 5.0576 17.0228C5.06417 17.0228 5.07075 17.0228 5.07732 17.0228C5.0839 17.0228 5.09048 17.0228 5.09706 17.0228C5.10364 17.0228 5.11022 17.0228 5.1168 17.0228C5.12339 17.0228 5.12997 17.0228 5.13656 17.0228C5.14315 17.0228 5.14974 17.0228 5.15633 17.0228C5.16292 17.0228 5.16951 17.0228 5.17611 17.0228C5.1827 17.0228 5.1893 17.0228 5.1959 17.0228C5.2025 17.0228 5.2091 17.0228 5.2157 17.0228C5.2223 17.0228 5.2289 17.0228 5.23551 17.0228C5.24211 17.0228 5.24872 17.0228 5.25533 17.0228C5.26193 17.0228 5.26854 17.0228 5.27515 17.0228C5.28176 17.0228 5.28838 17.0228 5.29499 17.0228C5.3016 17.0228 5.30822 17.0228 5.31483 17.0228C5.32145 17.0228 5.32807 17.0228 5.33469 17.0228C5.3413 17.0228 5.34792 17.0228 5.35454 17.0228C5.36117 17.0228 5.36779 17.0228 5.37441 17.0228C5.38103 17.0228 5.38766 17.0228 5.39428 17.0228C5.40091 17.0228 5.40753 17.0228 5.41416 17.0228C5.42078 17.0228 5.42741 17.0228 5.43404 17.0228C5.44067 17.0228 5.4473 17.0228 5.45393 17.0228C5.46056 17.0228 5.46719 17.0228 5.47382 17.0228C5.48045 17.0228 5.48708 17.0228 5.49371 17.0228C5.50035 17.0228 5.50698 17.0228 5.51361 17.0228C5.52025 17.0228 5.52688 17.0228 5.53351 17.0228C5.54015 17.0228 5.54678 17.0228 5.55342 17.0228C5.56005 17.0228 5.56669 17.0228 5.57333 17.0228C5.57996 17.0228 5.5866 17.0228 5.59323 17.0228C5.59987 17.0228 5.60651 17.0228 5.61314 17.0228C5.61978 17.0228 5.62642 17.0228 5.63305 17.0228C5.63969 17.0228 5.64633 17.0228 5.65297 17.0228C5.6596 17.0228 5.66624 17.0228 5.67288 17.0228C5.67951 17.0228 5.68615 17.0228 5.69279 17.0228C5.69942 17.0228 5.70606 17.0228 5.7127 17.0228C5.71933 17.0228 5.72597 17.0228 5.7326 17.0228C5.73924 17.0228 5.74587 17.0228 5.75251 17.0228C5.75914 17.0228 5.76578 17.0228 5.77241 17.0228C5.77905 17.0228 5.78568 17.0228 5.79231 17.0228C5.79895 17.0228 5.80558 17.0228 5.81221 17.0228C5.81884 17.0228 5.82548 17.0228 5.83211 17.0228C5.83874 17.0228 5.84537 17.0228 5.852 17.0228C5.85863 17.0228 5.86525 17.0228 5.87188 17.0228C5.87851 17.0228 5.88514 17.0228 5.89176 17.0228C5.89839 17.0228 5.90501 17.0228 5.91164 17.0228C5.91826 17.0228 5.92489 17.0228 5.93151 17.0228C5.93813 17.0228 5.94475 17.0228 5.95137 17.0228C5.95799 17.0228 5.96461 17.0228 5.97123 17.0228C5.97784 17.0228 5.98446 17.0228 5.99108 17.0228C5.99769 17.0228 6.00431 17.0228 6.01092 17.0228C6.01753 17.0228 6.02414 17.0228 6.03075 17.0228C6.03736 17.0228 6.04397 17.0228 6.05058 17.0228C6.05718 17.0228 6.06379 17.0228 6.07039 17.0228C6.077 17.0228 6.0836 17.0228 6.0902 17.0228C6.0968 17.0228 6.1034 17.0228 6.11 17.0228C6.11659 17.0228 6.12319 17.0228 6.12978 17.0228C6.13638 17.0228 6.14297 17.0228 6.14956 17.0228C6.15615 17.0228 6.16274 17.0228 6.16933 17.0228C6.17591 17.0228 6.1825 17.0228 6.18908 17.0228C6.19566 17.0228 6.20224 17.0228 6.20882 17.0228C6.2154 17.0228 6.22198 17.0228 6.22855 17.0228C6.23512 17.0228 6.2417 17.0228 6.24827 17.0228C6.25484 17.0228 6.2614 17.0228 6.26797 17.0228C6.27453 17.0228 6.2811 17.0228 6.28766 17.0228C6.29422 17.0228 6.30078 17.0228 6.30733 17.0228C6.31389 17.0228 6.32044 17.0228 6.32699 17.0228C6.33354 17.0228 6.34009 17.0228 6.34664 17.0228C6.35318 17.0228 6.35973 17.0228 6.36627 17.0228C6.37281 17.0228 6.37934 17.0228 6.38588 17.0228C6.39241 17.0228 6.39895 17.0228 6.40548 17.0228C6.41201 17.0228 6.41853 17.0228 6.42506 17.0228C6.43158 17.0228 6.4381 17.0228 6.44462 17.0228C6.45114 17.0228 6.45765 17.0228 6.46416 17.0228C6.47068 17.0228 6.47718 17.0228 6.48369 17.0228C6.4902 17.0228 6.4967 17.0228 6.5032 17.0228C6.5097 17.0228 6.51619 17.0228 6.52269 17.0228C6.52918 17.0228 6.53567 17.0228 6.54216 17.0228C6.54864 17.0228 6.55513 17.0228 6.56161 17.0228C6.56809 17.0228 6.57456 17.0228 6.58103 17.0228C6.58751 17.0228 6.59398 17.0228 6.60044 17.0228C6.60691 17.0228 6.61337 17.0228 6.61983 17.0228C6.62629 17.0228 6.63274 17.0228 6.63919 17.0228C6.64564 17.0228 6.65209 17.0228 6.65854 17.0228C6.66498 17.0228 6.67142 17.0228 6.67786 17.0228C6.68429 17.0228 6.69072 17.0228 6.69715 17.0228C6.70358 17.0228 6.71001 17.0228 6.71643 17.0228C6.72285 17.0228 6.72926 17.0228 6.73568 17.0228C6.74209 17.0228 6.7485 17.0228 6.7549 17.0228C6.7613 17.0228 6.7677 17.0228 6.7741 17.0228C6.7805 17.0228 6.78689 17.0228 6.79328 17.0228C6.79966 17.0228 6.80605 17.0228 6.81242 17.0228C6.8188 17.0228 6.82518 17.0228 6.83155 17.0228C6.83792 17.0228 6.84428 17.0228 6.85064 17.0228C6.857 17.0228 6.86336 17.0228 6.86971 17.0228C6.87606 17.0228 6.88241 17.0228 6.88875 17.0228C6.8951 17.0228 6.90143 17.0228 6.90777 17.0228C6.9141 17.0228 6.92043 17.0228 6.92675 17.0228C6.93308 17.0228 6.93939 17.0228 6.94571 17.0228C6.95202 17.0228 6.95833 17.0228 6.96464 17.0228C6.97094 17.0228 6.97724 17.0228 6.98353 17.0228C6.98983 17.0228 6.99612 17.0228 7.0024 17.0228C7.00868 17.0228 7.01496 17.0228 7.02124 17.0228C7.02751 17.0228 7.03378 17.0228 7.04004 17.0228C7.0463 17.0228 7.05256 17.0228 7.05882 17.0228C7.06507 17.0228 7.07132 17.0228 7.07756 17.0228C7.0838 17.0228 7.09004 17.0228 7.09627 17.0228C7.1025 17.0228 7.10872 17.0228 7.11494 17.0228C7.12116 17.0228 7.12738 17.0228 7.13359 17.0228C7.1398 17.0228 7.146 17.0228 7.1522 17.0228C7.15839 17.0228 7.16459 17.0228 7.17077 17.0228C7.17696 17.0228 7.18314 17.0228 7.18931 17.0228C7.19549 17.0228 7.20166 17.0228 7.20782 17.0228C7.21398 17.0228 7.22014 17.0228 7.22629 17.0228C7.23244 17.0228 7.23858 17.0228 7.24472 17.0228C7.25086 17.0228 7.25699 17.0228 7.26312 17.0228C7.26925 17.0228 7.27537 17.0228 7.28148 17.0228C7.2876 17.0228 7.2937 17.0228 7.29981 17.0228C7.30591 17.0228 7.312 17.0228 7.31809 17.0228C7.32418 17.0228 7.33026 17.0228 7.33634 17.0228C7.34242 17.0228 7.34849 17.0228 7.35455 17.0228C7.36061 17.0228 7.36667 17.0228 7.37272 17.0228C7.37877 17.0228 7.38481 17.0228 7.39085 17.0228C7.39689 17.0228 7.40292 17.0228 7.40894 17.0228C7.41497 17.0228 7.42098 17.0228 7.42699 17.0228C7.433 17.0228 7.43901 17.0228 7.445 17.0228C7.451 17.0228 7.45699 17.0228 7.46297 17.0228C7.46895 17.0228 7.47493 17.0228 7.4809 17.0228C7.48687 17.0228 7.49283 17.0228 7.49878 17.0228C7.50474 17.0228 7.51068 17.0228 7.51662 17.0228C7.52256 17.0228 7.5285 17.0228 7.53442 17.0228C7.54035 17.0228 7.54627 17.0228 7.55218 17.0228C7.55809 17.0228 7.56399 17.0228 7.56989 17.0228C7.57579 17.0228 7.58168 17.0228 7.58756 17.0228C7.59344 17.0228 7.59931 17.0228 7.60518 17.0228C7.61105 17.0228 7.61691 17.0228 7.62276 17.0228C7.62861 17.0228 7.63445 17.0228 7.64029 17.0228C7.64612 17.0228 7.65195 17.0228 7.65777 17.0228C7.66359 17.0228 7.66941 17.0228 7.67521 17.0228C7.68102 17.0228 7.68681 17.0228 7.6926 17.0228C7.69839 17.0228 7.70417 17.0228 7.70995 17.0228C7.71572 17.0228 7.72149 17.0228 7.72724 17.0228C7.733 17.0228 7.73875 17.0228 7.74449 17.0228C7.75023 17.0228 7.75597 17.0228 7.76169 17.0228C7.76742 17.0228 7.77313 17.0228 7.77884 17.0228C7.78455 17.0228 7.79025 17.0228 7.79594 17.0228C7.80163 17.0228 7.80732 17.0228 7.81299 17.0228C7.81867 17.0228 7.82433 17.0228 7.82999 17.0228C7.83565 17.0228 7.8413 17.0228 7.84694 17.0228C7.85258 17.0228 7.85821 17.0228 7.86384 17.0228C7.86946 17.0228 7.87508 17.0228 7.88068 17.0228C7.88629 17.0228 7.89189 17.0228 7.89748 17.0228C7.90307 17.0228 7.90865 17.0228 7.91422 17.0228C7.91979 17.0228 7.92535 17.0228 7.9309 17.0228C7.93646 17.0228 7.942 17.0228 7.94754 17.0228C7.95307 17.0228 7.9586 17.0228 7.96412 17.0228C7.96963 17.0228 7.97514 17.0228 7.98064 17.0228C7.98614 17.0228 7.99163 17.0228 7.99711 17.0228C8.00259 17.0228 8.00806 17.0228 8.01353 17.0228C8.01899 17.0228 8.02444 17.0228 8.02988 17.0228C8.03533 17.0228 8.04076 17.0228 8.04619 17.0228C8.05161 17.0228 8.05703 17.0228 8.06243 17.0228C8.06784 17.0228 8.07323 17.0228 8.07862 17.0228C8.08401 17.0228 8.08938 17.0228 8.09475 17.0228C8.10012 17.0228 8.10548 17.0228 8.11082 17.0228C8.11617 17.0228 8.12151 17.0228 8.12684 17.0228C8.13217 17.0228 8.13748 17.0228 8.14279 17.0228C8.1481 17.0228 8.1534 17.0228 8.15869 17.0228C8.16398 17.0228 8.16925 17.0228 8.17452 17.0228C8.17979 17.0228 8.18505 17.0228 8.1903 17.0228C8.19555 17.0228 8.20079 17.0228 8.20601 17.0228C8.21124 17.0228 8.21646 17.0228 8.22167 17.0228C8.22687 17.0228 8.23207 17.0228 8.23726 17.0228C8.24245 17.0228 8.24762 17.0228 8.25279 17.0228C8.25795 17.0228 8.26311 17.0228 8.26826 17.0228C8.2734 17.0228 8.27854 17.0228 8.28366 17.0228C8.28878 17.0228 8.2939 17.0228 8.299 17.0228C8.3041 17.0228 8.3092 17.0228 8.31428 17.0228C8.31936 17.0228 8.32443 17.0228 8.32949 17.0228C8.33455 17.0228 8.3396 17.0228 8.34464 17.0228C8.34968 17.0228 8.3547 17.0228 8.35972 17.0228C8.36474 17.0228 8.36974 17.0228 8.37474 17.0228C8.37973 17.0228 8.38472 17.0228 8.38969 17.0228C8.39466 17.0228 8.39962 17.0228 8.40457 17.0228C8.40952 17.0228 8.41446 17.0228 8.41939 17.0228C8.42432 17.0228 8.42924 17.0228 8.43414 17.0228C8.43905 17.0228 8.44394 17.0228 8.44882 17.0228C8.45371 17.0228 8.45858 17.0228 8.46344 17.0228C8.4683 17.0228 8.47315 17.0228 8.47798 17.0228C8.48282 17.0228 8.48765 17.0228 8.49246 17.0228C8.49727 17.0228 8.50208 17.0228 8.50687 17.0228C8.51166 17.0228 8.51644 17.0228 8.5212 17.0228C8.52597 17.0228 8.53073 17.0228 8.53547 17.0228C8.54021 17.0228 8.54494 17.0228 8.54966 17.0228C8.55438 17.0228 8.55909 17.0228 8.56379 17.0228C8.56848 17.0228 8.57317 17.0228 8.57784 17.0228C8.58251 17.0228 8.58717 17.0228 8.59182 17.0228C8.59647 17.0228 8.6011 17.0228 8.60573 17.0228C8.61035 17.0228 8.61496 17.0228 8.61956 17.0228C8.62416 17.0228 8.62875 17.0228 8.63332 17.0228C8.6379 17.0228 8.64246 17.0228 8.64701 17.0228C8.65156 17.0228 8.65609 17.0228 8.66062 17.0228C8.66514 17.0228 8.66966 17.0228 8.67416 17.0228C8.67866 17.0228 8.68314 17.0228 8.68762 17.0228C8.69209 17.0228 8.69655 17.0228 8.701 17.0228C8.70545 17.0228 8.70989 17.0228 8.71431 17.0228C8.71874 17.0228 8.72315 17.0228 8.72755 17.0228C8.73194 17.0228 8.73633 17.0228 8.7407 17.0228C8.74507 17.0228 8.74943 17.0228 8.75378 17.0228C8.75813 17.0228 8.76246 17.0228 8.76678 17.0228C8.7711 17.0228 8.77541 17.0228 8.7797 17.0228C8.78399 17.0228 8.78828 17.0228 8.79254 17.0228C8.79681 17.0228 8.80107 17.0228 8.80531 17.0228C8.80955 17.0228 8.81378 17.0228 8.81799 17.0228C8.8222 17.0228 8.82641 17.0228 8.83059 17.0228C8.83478 17.0228 8.83896 17.0228 8.84312 17.0228C8.84728 17.0228 8.85142 17.0228 8.85556 17.0228C8.85969 17.0228 8.86381 17.0228 8.86792 17.0228C8.87202 17.0228 8.87612 17.0228 8.8802 17.0228C8.88427 17.0228 8.88834 17.0228 8.89239 17.0228C8.89644 17.0228 8.90048 17.0228 8.9045 17.0228C8.90853 17.0228 8.91254 17.0228 8.91653 17.0228C8.92053 17.0228 8.92451 17.0228 8.92848 17.0228C8.93245 17.0228 8.9364 17.0228 8.94034 17.0228C8.94428 17.0228 8.9482 17.0228 8.95212 17.0228C8.95603 17.0228 8.95992 17.0228 8.96381 17.0228C8.96769 17.0228 8.97156 17.0228 8.97541 17.0228C8.97927 17.0228 8.98311 17.0228 8.98693 17.0228C8.99076 17.0228 8.99457 17.0228 8.99837 17.0228C9.00216 17.0228 9.00595 17.0228 9.00971 17.0228C9.01348 17.0228 9.01723 17.0228 9.02097 17.0228C9.02471 17.0228 9.02844 17.0228 9.03214 17.0228C9.03585 17.0228 9.03955 17.0228 9.04323 17.0228C9.04691 17.0228 9.05057 17.0228 9.05422 17.0228C9.05787 17.0228 9.06151 17.0228 9.06513 17.0228C9.06875 17.0228 9.07235 17.0228 9.07594 17.0228C9.07953 17.0228 9.08311 17.0228 9.08667 17.0228C9.09023 17.0228 9.09378 17.0228 9.09731 17.0228C9.10084 17.0228 9.10435 17.0228 9.10785 17.0228C9.11135 17.0228 9.11483 17.0228 9.1183 17.0228C9.12177 17.0228 9.12523 17.0228 9.12867 17.0228C9.1321 17.0228 9.13553 17.0228 9.13894 17.0228C9.14234 17.0228 9.14574 17.0228 9.14911 17.0228C9.15249 17.0228 9.15585 17.0228 9.1592 17.0228C9.16254 17.0228 9.16587 17.0228 9.16919 17.0228V15.2914ZM1.66979 16.1571C2.46897 16.4899 2.46902 16.4898 2.46907 16.4897C2.46909 16.4896 2.46915 16.4895 2.4692 16.4894C2.4693 16.4892 2.46941 16.4889 2.46955 16.4885C2.46982 16.4879 2.47017 16.487 2.4706 16.486C2.47145 16.484 2.47261 16.4811 2.47407 16.4776C2.47699 16.4705 2.48109 16.4605 2.48628 16.4477C2.49666 16.4222 2.51141 16.3856 2.52976 16.3391C2.56643 16.2463 2.61761 16.1139 2.6771 15.9523C2.79561 15.6304 2.94934 15.1863 3.08695 14.7039C3.22322 14.2263 3.35096 13.6862 3.40718 13.1787C3.45887 12.7119 3.47223 12.1044 3.22434 11.6057L1.67389 12.3764C1.67219 12.373 1.69249 12.4161 1.70175 12.5367C1.71062 12.6522 1.70677 12.803 1.68627 12.9881C1.64511 13.3597 1.54553 13.7958 1.42196 14.2289C1.29974 14.6573 1.16113 15.0585 1.05227 15.3542C0.998074 15.5014 0.951814 15.621 0.919458 15.7029C0.903292 15.7438 0.890634 15.7752 0.882235 15.7959C0.878036 15.8062 0.874906 15.8139 0.872937 15.8186C0.871952 15.821 0.871258 15.8227 0.870867 15.8237C0.870672 15.8241 0.870552 15.8244 0.870509 15.8245C0.870488 15.8246 0.870486 15.8246 0.870503 15.8245C0.870512 15.8245 0.87054 15.8245 0.870544 15.8244C0.870577 15.8244 0.870614 15.8243 1.66979 16.1571Z" fill="white"/>
</svg>
