<svg width="21" height="20" viewBox="0 0 21 20" fill="none" xmlns="http://www.w3.org/2000/svg">
<path fill-rule="evenodd" clip-rule="evenodd" d="M0.942871 3.65713C0.942871 2.00028 2.28602 0.657135 3.94287 0.657135H17.9429C19.5997 0.657135 20.9429 2.00028 20.9429 3.65714V13.6571C20.9429 15.314 19.5997 16.6571 17.9429 16.6571H7.30492C7.07098 16.6571 6.84445 16.7392 6.66474 16.8889L4.22324 18.9235C2.92058 20.009 0.942871 19.0827 0.942871 17.3871V3.65713ZM5.94287 6.65714C5.94287 6.10485 6.39059 5.65714 6.94287 5.65714H14.9429C15.4952 5.65714 15.9429 6.10485 15.9429 6.65714C15.9429 7.20942 15.4952 7.65714 14.9429 7.65714H6.94287C6.39059 7.65714 5.94287 7.20942 5.94287 6.65714ZM6.94287 9.65714C6.39059 9.65714 5.94287 10.1048 5.94287 10.6571C5.94287 11.2094 6.39059 11.6571 6.94287 11.6571H10.9429C11.4952 11.6571 11.9429 11.2094 11.9429 10.6571C11.9429 10.1048 11.4952 9.65714 10.9429 9.65714H6.94287Z" fill="white"/>
</svg>
