<svg width="21" height="21" viewBox="0 0 21 21" fill="none" xmlns="http://www.w3.org/2000/svg">
<path d="M15.1469 2.48271C14.6477 2.31521 14.1227 2.24104 13.5969 2.24104C12.4385 2.23271 11.3144 2.61604 10.3885 3.32354C10.3135 3.26604 10.2219 3.21521 10.1385 3.16604C10.0552 3.11521 9.90519 2.99104 9.78019 2.92437L9.46352 2.78271C9.29686 2.69104 9.12269 2.62437 8.93852 2.56521C8.92186 2.54937 8.89686 2.53187 8.86352 2.51604H8.81436C8.32186 2.34854 7.81352 2.25687 7.28852 2.24104H7.19686C6.96352 2.24104 6.73102 2.25687 6.49686 2.29104H6.39686C6.14686 2.32354 5.89769 2.38187 5.65602 2.46521C2.54686 3.48271 1.43852 6.85771 2.38019 9.8077C2.91352 11.3152 3.77269 12.6827 4.88936 13.8069C6.51352 15.3735 8.28936 16.7569 10.1969 17.9402L10.4135 18.0744L10.6219 17.9485C12.5227 16.7569 14.2885 15.3735 15.8977 13.8152C17.0219 12.691 17.8802 11.3152 18.4052 9.8077C19.331 6.85771 18.2227 3.48271 15.1469 2.48271Z" fill="#FF0000"/>
</svg>
