<svg width="12" height="8" viewBox="0 0 12 8" fill="none" xmlns="http://www.w3.org/2000/svg">
<path d="M1.99967 5.99999H2.00634M1.99967 1.99999H2.00634M5.99967 1.99999H6.00634M9.99967 1.99999H10.0063M9.99967 5.99999H10.0063M5.99967 5.99999H6.00634M2.66634 1.99999C2.66634 2.36818 2.36786 2.66666 1.99967 2.66666C1.63148 2.66666 1.33301 2.36818 1.33301 1.99999C1.33301 1.63181 1.63148 1.33333 1.99967 1.33333C2.36786 1.33333 2.66634 1.63181 2.66634 1.99999ZM2.66634 5.99999C2.66634 6.36818 2.36786 6.66666 1.99967 6.66666C1.63148 6.66666 1.33301 6.36818 1.33301 5.99999C1.33301 5.6318 1.63148 5.33333 1.99967 5.33333C2.36786 5.33333 2.66634 5.6318 2.66634 5.99999ZM6.66634 1.99999C6.66634 2.36818 6.36786 2.66666 5.99967 2.66666C5.63148 2.66666 5.33301 2.36818 5.33301 1.99999C5.33301 1.63181 5.63148 1.33333 5.99967 1.33333C6.36786 1.33333 6.66634 1.63181 6.66634 1.99999ZM6.66634 5.99999C6.66634 6.36818 6.36786 6.66666 5.99967 6.66666C5.63148 6.66666 5.33301 6.36818 5.33301 5.99999C5.33301 5.6318 5.63148 5.33333 5.99967 5.33333C6.36786 5.33333 6.66634 5.6318 6.66634 5.99999ZM10.6663 1.99999C10.6663 2.36818 10.3679 2.66666 9.99967 2.66666C9.63148 2.66666 9.33301 2.36818 9.33301 1.99999C9.33301 1.63181 9.63148 1.33333 9.99967 1.33333C10.3679 1.33333 10.6663 1.63181 10.6663 1.99999ZM10.6663 5.99999C10.6663 6.36818 10.3679 6.66666 9.99967 6.66666C9.63148 6.66666 9.33301 6.36818 9.33301 5.99999C9.33301 5.6318 9.63148 5.33333 9.99967 5.33333C10.3679 5.33333 10.6663 5.6318 10.6663 5.99999Z" stroke="white" stroke-width="1.33333" stroke-linecap="round" stroke-linejoin="round"/>
</svg>
