<svg width="14" height="14" viewBox="0 0 14 14" fill="none" xmlns="http://www.w3.org/2000/svg">
<path d="M7 2.66667C7 3.58714 6.25381 4.33333 5.33333 4.33333C4.41286 4.33333 3.66667 3.58714 3.66667 2.66667M7 2.66667C7 1.74619 6.25381 1 5.33333 1C4.41286 1 3.66667 1.74619 3.66667 2.66667M7 2.66667H13M3.66667 2.66667H1M11.6667 7C11.6667 7.92047 10.9205 8.66667 10 8.66667C9.07952 8.66667 8.33333 7.92047 8.33333 7M11.6667 7C11.6667 6.07953 10.9205 5.33333 10 5.33333C9.07952 5.33333 8.33333 6.07953 8.33333 7M11.6667 7H13M8.33333 7H1M5.66667 11.3333C5.66667 12.2538 4.92047 13 4 13C3.07953 13 2.33333 12.2538 2.33333 11.3333M5.66667 11.3333C5.66667 10.4129 4.92047 9.66667 4 9.66667C3.07953 9.66667 2.33333 10.4129 2.33333 11.3333M5.66667 11.3333H13M2.33333 11.3333H1" stroke="white" stroke-width="1.33333" stroke-linecap="round" stroke-linejoin="round"/>
</svg>
