<svg width="17" height="18" viewBox="0 0 17 18" fill="none" xmlns="http://www.w3.org/2000/svg">
<g clip-path="url(#clip0_27_20634)">
<mask id="mask0_27_20634" style="mask-type:alpha" maskUnits="userSpaceOnUse" x="0" y="0" width="17" height="17">
<path d="M0.5 0.544999V16.853H16.482V0.542999H0.5V0.544999Z" fill="white"/>
</mask>
<g mask="url(#mask0_27_20634)">
<path fill-rule="evenodd" clip-rule="evenodd" d="M5.98991 0.990999C3.98396 1.6903 2.32768 3.1408 1.36991 5.037C1.04201 5.68559 0.803181 6.37549 0.659913 7.088C0.301292 8.87524 0.549766 10.7311 1.36591 12.361C1.89947 13.4173 2.65465 14.3461 3.57991 15.084C4.45427 15.7806 5.46298 16.2892 6.54291 16.578C7.90191 16.942 9.34791 16.934 10.7159 16.622C11.9603 16.3409 13.1108 15.7429 14.0559 14.886C15.0429 13.979 15.7479 12.786 16.1209 11.502C16.5289 10.104 16.5809 8.609 16.3269 7.172H8.65591V10.353H13.0999C13.0112 10.861 12.8211 11.346 12.5409 11.779C12.2606 12.2119 11.8961 12.584 11.4689 12.873C10.9259 13.2323 10.3139 13.4742 9.67191 13.583C9.03191 13.693 8.36491 13.706 7.72491 13.579C7.07257 13.4453 6.45496 13.178 5.91091 12.794C5.03973 12.1788 4.38607 11.3031 4.04391 10.293C3.69559 9.26401 3.69559 8.14899 4.04391 7.12C4.28917 6.39705 4.69381 5.73848 5.22791 5.193C5.88972 4.51223 6.73728 4.04132 7.66491 3.839C8.45844 3.67093 9.28139 3.70393 10.0589 3.935C10.7177 4.13731 11.3196 4.49187 11.8159 4.97L13.3159 3.47C13.5789 3.203 13.8549 2.945 14.1089 2.668C13.3482 1.9599 12.456 1.40782 11.4829 1.043C9.71221 0.397314 7.77353 0.378958 5.99091 0.990999" fill="white"/>
</g>
<mask id="mask1_27_20634" style="mask-type:alpha" maskUnits="userSpaceOnUse" x="1" y="0" width="14" height="8">
<path d="M14.1091 0.544006H1.37012V7.11401H14.1101V0.544006H14.1091Z" fill="white"/>
</mask>
<g mask="url(#mask1_27_20634)">
<path fill-rule="evenodd" clip-rule="evenodd" d="M5.99112 0.991002C7.77363 0.379855 9.71156 0.396792 11.4831 1.039C12.4561 1.399 13.3461 1.959 14.1091 2.665C13.8551 2.941 13.5791 3.2 13.3161 3.467L11.8161 4.967C11.3187 4.49036 10.7172 4.13602 10.0591 3.932C9.28204 3.69843 8.45854 3.66506 7.66512 3.835C6.74512 4.033 5.89012 4.515 5.22812 5.19C4.6935 5.73391 4.28874 6.39164 4.04412 7.114C3.15412 6.423 2.26412 5.734 1.37012 5.041C2.32648 3.14283 3.98308 1.69062 5.99012 0.991002" fill="#EA4335"/>
</g>
<path fill-rule="evenodd" clip-rule="evenodd" d="M0.665281 7.08301C0.809281 6.37301 1.04528 5.68101 1.37528 5.03201C2.26528 5.72401 3.15528 6.41201 4.04928 7.10501C3.69849 8.13394 3.69849 9.25009 4.04928 10.279C3.15928 10.972 2.26928 11.664 1.37928 12.352C0.556159 10.7258 0.304644 8.86969 0.665281 7.08301Z" fill="#FBBC05"/>
<path fill-rule="evenodd" clip-rule="evenodd" d="M8.65637 7.16699H16.3274C16.5882 8.60725 16.5178 10.088 16.1214 11.497C15.7484 12.782 15.0434 13.974 14.0564 14.882L11.4664 12.87C11.8934 12.5808 12.2579 12.2085 12.5379 11.7754C12.818 11.3422 13.0079 10.8571 13.0964 10.349H8.65137C8.65637 9.28899 8.65637 8.22699 8.65637 7.16699Z" fill="#4285F4"/>
<path fill-rule="evenodd" clip-rule="evenodd" d="M1.37012 12.357C2.26012 11.668 3.15012 10.976 4.04012 10.283C4.38344 11.2931 5.03681 12.169 5.90712 12.786C6.45188 13.1694 7.06969 13.4366 7.72212 13.571C8.36212 13.702 9.02412 13.685 9.66812 13.575C10.3104 13.4663 10.9229 13.2245 11.4661 12.865L14.0561 14.877C13.1231 15.741 11.9521 16.328 10.7161 16.613C9.34812 16.924 7.90212 16.933 6.54312 16.569C5.46249 16.282 4.45342 15.7732 3.58012 15.075C2.65647 14.3386 1.90264 13.4114 1.37012 12.357Z" fill="#34A853"/>
</g>
<defs>
<clipPath id="clip0_27_20634">
<rect width="16" height="17" fill="white" transform="translate(0.5 0.5)"/>
</clipPath>
</defs>
</svg>
