<svg width="462" height="463" viewBox="0 0 462 463" fill="none" xmlns="http://www.w3.org/2000/svg">
<path d="M44 37.5H454C458.142 37.5 461.5 40.8579 461.5 45V455C461.5 459.142 458.142 462.5 454 462.5H44C39.8579 462.5 36.5 459.142 36.5 455V45C36.5 40.8579 39.8579 37.5 44 37.5Z" fill="#272727" fill-opacity="0.1" stroke="#0F0F0F"/>
<path d="M32 24.5H442C446.142 24.5 449.5 27.8579 449.5 32V442C449.5 446.142 446.142 449.5 442 449.5H32C27.8579 449.5 24.5 446.142 24.5 442V32C24.5 27.8579 27.8579 24.5 32 24.5Z" fill="#272727" fill-opacity="0.25" stroke="#0F0F0F"/>
<path d="M20 12.5H430C434.142 12.5 437.5 15.8579 437.5 20V430C437.5 434.142 434.142 437.5 430 437.5H20C15.8579 437.5 12.5 434.142 12.5 430V20C12.5 15.8579 15.8579 12.5 20 12.5Z" fill="#272727" fill-opacity="0.5" stroke="#0F0F0F"/>
<path d="M8 0.5H418C422.142 0.5 425.5 3.85786 425.5 8V418C425.5 422.142 422.142 425.5 418 425.5H8C3.85786 425.5 0.5 422.142 0.5 418V8C0.5 3.85786 3.85786 0.5 8 0.5Z" fill="#272727" fill-opacity="0.8" stroke="#0F0F0F"/>
</svg>
