<svg width="24" height="24" viewBox="0 0 24 24" fill="none" xmlns="http://www.w3.org/2000/svg">
<g clip-path="url(#clip0_3_1046)">
<path d="M10.5998 6.82664C11.0587 6.71923 11.5285 6.66554 11.9998 6.66664C16.6665 6.66664 19.3332 12 19.3332 12C18.9285 12.757 18.4459 13.4698 17.8932 14.1266M13.4132 13.4133C13.2301 13.6098 13.0093 13.7674 12.7639 13.8767C12.5186 13.986 12.2538 14.0448 11.9852 14.0496C11.7167 14.0543 11.4499 14.0049 11.2009 13.9043C10.9519 13.8037 10.7257 13.654 10.5357 13.4641C10.3458 13.2742 10.1961 13.0479 10.0955 12.7989C9.99492 12.5499 9.94552 12.2831 9.95026 12.0146C9.955 11.746 10.0138 11.4812 10.1231 11.2359C10.2324 10.9905 10.39 10.7697 10.5865 10.5866M15.9598 15.96C14.8202 16.8286 13.4326 17.3099 11.9998 17.3333C7.33317 17.3333 4.6665 12 4.6665 12C5.49576 10.4546 6.64593 9.10438 8.03984 8.03998L15.9598 15.96Z" stroke="#D0D0D0" stroke-width="2" stroke-linecap="round" stroke-linejoin="round"/>
<path d="M4.6665 4.66663L19.3332 19.3333" stroke="#D0D0D0" stroke-width="2" stroke-linecap="round" stroke-linejoin="round"/>
</g>
<defs>
<clipPath id="clip0_3_1046">
<rect width="16" height="16" fill="white" transform="translate(4 4)"/>
</clipPath>
</defs>
</svg>
