<svg width="16" height="16" viewBox="0 0 16 16" fill="none" xmlns="http://www.w3.org/2000/svg">
<g clip-path="url(#clip0_27_20809)">
<path d="M6.60032 2.82667C7.05921 2.71926 7.52903 2.66557 8.00033 2.66667C12.667 2.66667 15.3337 8.00001 15.3337 8.00001C14.929 8.75708 14.4464 9.46983 13.8937 10.1267M9.41366 9.41334C9.23056 9.60984 9.00976 9.76744 8.76443 9.87676C8.5191 9.98607 8.25426 10.0448 7.98572 10.0496C7.71718 10.0543 7.45043 10.0049 7.2014 9.90433C6.95236 9.80374 6.72614 9.65403 6.53622 9.46411C6.34631 9.27419 6.19659 9.04797 6.096 8.79893C5.99541 8.5499 5.94601 8.28315 5.95075 8.01461C5.95549 7.74607 6.01426 7.48124 6.12358 7.23591C6.23289 6.99057 6.39049 6.76977 6.58699 6.58667M11.9603 11.96C10.8207 12.8287 9.43306 13.3099 8.00033 13.3333C3.33366 13.3333 0.666992 8.00001 0.666992 8.00001C1.49625 6.4546 2.64642 5.10441 4.04033 4.04001L11.9603 11.96Z" stroke="#D0D0D0" stroke-width="2" stroke-linecap="round" stroke-linejoin="round"/>
<path d="M0.666992 0.666672L15.3337 15.3333" stroke="#D0D0D0" stroke-width="2" stroke-linecap="round" stroke-linejoin="round"/>
</g>
<defs>
<clipPath id="clip0_27_20809">
<rect width="16" height="16" fill="white"/>
</clipPath>
</defs>
</svg>
