<svg width="33" height="21" viewBox="0 0 33 21" fill="none" xmlns="http://www.w3.org/2000/svg">
<path d="M32.5001 0.5H26.6667L19.1667 12.1667H22.5001L16.6667 20.5H22.5001L30.8334 8.83333H27.5001L32.5001 0.5Z" fill="url(#paint0_linear_603_21069)"/>
<path d="M6.8 7.46C7.36889 6.76667 8.08889 6.20667 8.96 5.78C9.83111 5.35333 10.7822 5.14 11.8133 5.14C13.4133 5.14 14.7022 5.66444 15.68 6.71333C16.6756 7.74444 17.1733 9.15778 17.1733 10.9533C17.1733 11.5222 17.12 12.1267 17.0133 12.7667C16.7467 14.2956 16.2222 15.6467 15.44 16.82C14.6578 17.9756 13.7156 18.8733 12.6133 19.5133C11.5111 20.1356 10.3467 20.4467 9.12 20.4467C8.07111 20.4467 7.19111 20.2422 6.48 19.8333C5.76889 19.4067 5.25333 18.8467 4.93333 18.1533L4.56 20.2333H0L3.49333 0.5H8.05333L6.8 7.46ZM12.4 12.7667C12.4533 12.4644 12.48 12.1889 12.48 11.94C12.48 11.0511 12.2222 10.3578 11.7067 9.86C11.2089 9.36222 10.5689 9.11333 9.78667 9.11333C8.88 9.11333 8.05333 9.44222 7.30667 10.1C6.56 10.7578 6.08 11.6556 5.86667 12.7933C5.81333 13.1133 5.78667 13.4067 5.78667 13.6733C5.78667 14.5444 6.03556 15.2289 6.53333 15.7267C7.03111 16.2244 7.67111 16.4733 8.45333 16.4733C9.36 16.4733 10.1867 16.1444 10.9333 15.4867C11.6978 14.8111 12.1867 13.9044 12.4 12.7667Z" fill="white"/>
<defs>
<linearGradient id="paint0_linear_603_21069" x1="16.6667" y1="20.5" x2="33.475" y2="19.6441" gradientUnits="userSpaceOnUse">
<stop stop-color="#BD1717"/>
<stop offset="1" stop-color="#CA0000"/>
</linearGradient>
</defs>
</svg>
