<svg width="93" height="12" viewBox="0 0 93 12" fill="none" xmlns="http://www.w3.org/2000/svg">
<path d="M51.0846 4.18717C51.4263 3.77005 51.8588 3.43315 52.3821 3.17647C52.9053 2.91979 53.4766 2.79144 54.096 2.79144C55.0571 2.79144 55.8313 3.10695 56.4186 3.73797C57.0166 4.35829 57.3156 5.20856 57.3156 6.28877C57.3156 6.63102 57.2836 6.99465 57.2195 7.37968C57.0593 8.29947 56.7443 9.1123 56.2744 9.81818C55.8046 10.5134 55.2386 11.0535 54.5765 11.4385C53.9144 11.8128 53.215 12 52.4782 12C51.8481 12 51.3195 11.877 50.8924 11.631C50.4652 11.3743 50.1555 11.0374 49.9633 10.6203L49.7391 11.8717H47L49.0984 0H51.8374L51.0846 4.18717ZM54.4484 7.37968C54.4804 7.19786 54.4964 7.03209 54.4964 6.88235C54.4964 6.34759 54.3416 5.93048 54.0319 5.63101C53.7329 5.33155 53.3485 5.18182 52.8786 5.18182C52.334 5.18182 51.8374 5.37968 51.3889 5.7754C50.9404 6.17112 50.6521 6.71123 50.524 7.39572C50.4919 7.58823 50.4759 7.76471 50.4759 7.92513C50.4759 8.4492 50.6254 8.86096 50.9244 9.16043C51.2234 9.45989 51.6079 9.60962 52.0777 9.60962C52.6223 9.60962 53.1189 9.41177 53.5674 9.01604C54.0266 8.60963 54.3202 8.06417 54.4484 7.37968Z" fill="white"/>
<path d="M61.9562 12C61.1873 12 60.5039 11.8449 59.9059 11.5348C59.3079 11.2246 58.8434 10.7861 58.5123 10.2193C58.192 9.65241 58.0318 8.99465 58.0318 8.24599C58.0318 7.22995 58.2721 6.30481 58.7526 5.47059C59.2331 4.63636 59.8952 3.98396 60.7388 3.51337C61.5824 3.03208 62.5222 2.79144 63.558 2.79144C64.3269 2.79144 65.0103 2.95187 65.6083 3.27273C66.217 3.58289 66.6869 4.02139 67.0179 4.58824C67.3489 5.15508 67.5145 5.81283 67.5145 6.5615C67.5145 7.58823 67.2688 8.51872 66.7776 9.35294C66.2971 10.1765 65.6297 10.8235 64.7754 11.2941C63.9318 11.7647 62.992 12 61.9562 12ZM62.3406 9.64171C62.7891 9.64171 63.1896 9.50802 63.542 9.24064C63.9051 8.96257 64.1827 8.60962 64.3749 8.18182C64.5778 7.74331 64.6793 7.28877 64.6793 6.81818C64.6793 6.28342 64.5351 5.87166 64.2468 5.58289C63.9585 5.29412 63.5954 5.14973 63.1576 5.14973C62.6984 5.14973 62.2926 5.28877 61.9402 5.56684C61.5985 5.83422 61.3315 6.18717 61.1393 6.62567C60.9471 7.06417 60.851 7.52406 60.851 8.00535C60.851 8.52941 60.9898 8.93583 61.2674 9.2246C61.5451 9.50267 61.9028 9.64171 62.3406 9.64171Z" fill="white"/>
<path d="M72.1552 12C71.3863 12 70.7029 11.8449 70.1049 11.5348C69.5069 11.2246 69.0423 10.7861 68.7113 10.2193C68.3909 9.65241 68.2308 8.99465 68.2308 8.24599C68.2308 7.22995 68.471 6.30481 68.9516 5.47059C69.4321 4.63636 70.0942 3.98396 70.9378 3.51337C71.7814 3.03208 72.7211 2.79144 73.757 2.79144C74.5258 2.79144 75.2093 2.95187 75.8073 3.27273C76.416 3.58289 76.8858 4.02139 77.2169 4.58824C77.5479 5.15508 77.7134 5.81283 77.7134 6.5615C77.7134 7.58823 77.4678 8.51872 76.9766 9.35294C76.4961 10.1765 75.8286 10.8235 74.9743 11.2941C74.1307 11.7647 73.191 12 72.1552 12ZM72.5396 9.64171C72.9881 9.64171 73.3886 9.50802 73.741 9.24064C74.104 8.96257 74.3817 8.60962 74.5739 8.18182C74.7768 7.74331 74.8782 7.28877 74.8782 6.81818C74.8782 6.28342 74.7341 5.87166 74.4457 5.58289C74.1574 5.29412 73.7943 5.14973 73.3565 5.14973C72.8973 5.14973 72.4916 5.28877 72.1392 5.56684C71.7974 5.83422 71.5305 6.18717 71.3383 6.62567C71.146 7.06417 71.0499 7.52406 71.0499 8.00535C71.0499 8.52941 71.1888 8.93583 71.4664 9.2246C71.744 9.50267 72.1018 9.64171 72.5396 9.64171Z" fill="white"/>
<path d="M82.7226 12C81.943 12 81.2489 11.8663 80.6402 11.5989C80.0315 11.3316 79.551 10.9679 79.1986 10.508C78.8462 10.0374 78.6486 9.51337 78.6059 8.93583H81.313C81.345 9.24599 81.4892 9.49732 81.7455 9.68984C82.0017 9.88235 82.3168 9.97861 82.6905 9.97861C83.0322 9.97861 83.2939 9.91444 83.4754 9.7861C83.6676 9.64706 83.7637 9.47059 83.7637 9.25668C83.7637 9 83.6302 8.81283 83.3633 8.69519C83.0963 8.56684 82.6638 8.42781 82.0658 8.27808C81.4251 8.12834 80.8912 7.97326 80.464 7.81283C80.0369 7.64171 79.6685 7.37968 79.3588 7.02674C79.0491 6.6631 78.8943 6.17647 78.8943 5.56684C78.8943 5.05348 79.0331 4.58823 79.3107 4.17112C79.599 3.74331 80.0155 3.40642 80.5601 3.16043C81.1154 2.91444 81.7722 2.79144 82.5303 2.79144C83.6516 2.79144 84.5326 3.06952 85.1733 3.62567C85.8247 4.18182 86.1985 4.91979 86.2946 5.83957H83.7637C83.721 5.52941 83.5822 5.28342 83.3473 5.1016C83.123 4.91979 82.824 4.82888 82.4503 4.82888C82.1299 4.82888 81.8843 4.89305 81.7134 5.02139C81.5426 5.13904 81.4571 5.30481 81.4571 5.51872C81.4571 5.7754 81.5906 5.96791 81.8576 6.09626C82.1352 6.2246 82.5624 6.35294 83.139 6.48128C83.8011 6.65241 84.3404 6.82353 84.7568 6.99465C85.1733 7.15508 85.5364 7.42246 85.8461 7.79679C86.1664 8.16043 86.332 8.65241 86.3426 9.27273C86.3426 9.79679 86.1931 10.2674 85.8941 10.6845C85.6058 11.0909 85.184 11.4118 84.6287 11.6471C84.0841 11.8824 83.4487 12 82.7226 12Z" fill="white"/>
<path d="M93 9.54545V11.8717H91.6064C90.6133 11.8717 89.8391 11.631 89.2838 11.1497C88.7285 10.6578 88.4509 9.86096 88.4509 8.75936V5.19786H87.3617V2.91979H88.4509V0.737968H91.19V2.91979H92.984V5.19786H91.19V8.79144C91.19 9.05882 91.254 9.25134 91.3822 9.36898C91.5103 9.48663 91.7239 9.54545 92.0229 9.54545H93Z" fill="white"/>
<path d="M4.03959 4.18717C4.37754 3.77005 4.80526 3.43315 5.32275 3.17647C5.84024 2.91979 6.40526 2.79144 7.0178 2.79144C7.96829 2.79144 8.73396 3.10695 9.31482 3.73797C9.90624 4.35829 10.2019 5.20856 10.2019 6.28877C10.2019 6.63102 10.1703 6.99465 10.1069 7.37968C9.94848 8.29947 9.63693 9.1123 9.17225 9.81818C8.70756 10.5134 8.14783 11.0535 7.49304 11.4385C6.83826 11.8128 6.14651 12 5.4178 12C4.7947 12 4.27193 11.877 3.84949 11.631C3.42705 11.3743 3.12078 11.0374 2.93068 10.6203L2.7089 11.8717H0L2.07524 0H4.78414L4.03959 4.18717ZM7.36631 7.37968C7.39799 7.19786 7.41384 7.03209 7.41384 6.88235C7.41384 6.34759 7.2607 5.93048 6.95443 5.63101C6.65872 5.33155 6.27853 5.18182 5.81384 5.18182C5.27523 5.18182 4.78414 5.37968 4.34058 5.7754C3.89702 6.17112 3.61187 6.71123 3.48514 7.39572C3.45345 7.58823 3.43761 7.76471 3.43761 7.92513C3.43761 8.4492 3.58547 8.86096 3.88117 9.16043C4.17688 9.45989 4.55708 9.60962 5.02176 9.60962C5.56038 9.60962 6.05146 9.41176 6.49503 9.01604C6.94915 8.60963 7.23958 8.06417 7.36631 7.37968Z" fill="white"/>
<path d="M19.8924 7.25134C19.8924 7.50802 19.8765 7.7754 19.8449 8.05348H13.7142C13.7564 8.60962 13.9307 9.03743 14.237 9.3369C14.5538 9.62567 14.9393 9.77005 15.3934 9.77005C16.0693 9.77005 16.5393 9.48128 16.8033 8.90374H19.6864C19.5386 9.49198 19.2693 10.0214 18.8785 10.492C18.4983 10.9626 18.0178 11.3316 17.4369 11.5989C16.8561 11.8663 16.2066 12 15.4884 12C14.6224 12 13.8515 11.8128 13.1756 11.4385C12.4997 11.0642 11.9716 10.5294 11.5914 9.83422C11.2112 9.13904 11.0211 8.3262 11.0211 7.39572C11.0211 6.46524 11.2059 5.65241 11.5756 4.95722C11.9558 4.26203 12.4838 3.72727 13.1597 3.35294C13.8356 2.97861 14.6119 2.79144 15.4884 2.79144C16.3439 2.79144 17.1043 2.97326 17.7696 3.3369C18.435 3.70053 18.9525 4.21925 19.3221 4.89305C19.7023 5.56684 19.8924 6.35294 19.8924 7.25134ZM17.1201 6.52941C17.1201 6.05882 16.9617 5.68449 16.6449 5.40642C16.328 5.12834 15.932 4.9893 15.4568 4.9893C15.0026 4.9893 14.6172 5.12299 14.3003 5.39037C13.9941 5.65775 13.804 6.03743 13.73 6.52941H17.1201Z" fill="white"/>
<path d="M20.7828 7.37968C20.7828 6.45989 20.9518 5.65241 21.2898 4.95722C21.6383 4.26203 22.1083 3.72727 22.6997 3.35294C23.2911 2.97861 23.9512 2.79144 24.6799 2.79144C25.303 2.79144 25.8469 2.91979 26.3115 3.17647C26.7868 3.43315 27.1511 3.77005 27.4046 4.18717V2.91979H30.1135V11.8717H27.4046V10.6043C27.1406 11.0214 26.7709 11.3583 26.2957 11.615C25.831 11.8717 25.2871 12 24.664 12C23.9459 12 23.2911 11.8128 22.6997 11.4385C22.1083 11.0535 21.6383 10.5134 21.2898 9.81818C20.9518 9.1123 20.7828 8.29947 20.7828 7.37968ZM27.4046 7.39572C27.4046 6.71123 27.2145 6.17112 26.8343 5.7754C26.4647 5.37968 26.0106 5.18182 25.4719 5.18182C24.9333 5.18182 24.4739 5.37968 24.0937 5.7754C23.7241 6.16043 23.5393 6.69519 23.5393 7.37968C23.5393 8.06417 23.7241 8.60963 24.0937 9.01604C24.4739 9.41176 24.9333 9.60962 25.4719 9.60962C26.0106 9.60962 26.4647 9.41176 26.8343 9.01604C27.2145 8.62032 27.4046 8.08021 27.4046 7.39572Z" fill="white"/>
<path d="M37 9.54545V11.8717H35.6218C34.6396 11.8717 33.8739 11.631 33.3248 11.1497C32.7756 10.6578 32.501 9.86096 32.501 8.75936V5.19786H31.4238V2.91979H32.501V0.737968H35.2099V2.91979H36.9842V5.19786H35.2099V8.79144C35.2099 9.05882 35.2733 9.25134 35.4 9.36898C35.5267 9.48663 35.738 9.54545 36.0337 9.54545H37Z" fill="white"/>
<path d="M47.5 0H44L39.5 7H41.5L38 12H41.5L46.5 5H44.5L47.5 0Z" fill="url(#paint0_linear_3_1846)"/>
<defs>
<linearGradient id="paint0_linear_3_1846" x1="38" y1="12" x2="48.0849" y2="11.4864" gradientUnits="userSpaceOnUse">
<stop stop-color="#BD1717"/>
<stop offset="1" stop-color="#CA0000"/>
</linearGradient>
</defs>
</svg>
