<svg width="124" height="17" viewBox="0 0 124 17" fill="none" xmlns="http://www.w3.org/2000/svg">
<path d="M68.1129 6.08289C68.5685 5.52674 69.1451 5.07754 69.8428 4.73529C70.5405 4.39305 71.3022 4.22192 72.1281 4.22192C73.4095 4.22192 74.4418 4.6426 75.2249 5.48396C76.0222 6.31105 76.4209 7.44474 76.4209 8.88503C76.4209 9.34135 76.3782 9.8262 76.2927 10.3396C76.0792 11.566 75.6591 12.6497 75.0327 13.5909C74.4062 14.5178 73.6515 15.238 72.7688 15.7513C71.886 16.2504 70.9534 16.5 69.971 16.5C69.1309 16.5 68.4261 16.336 67.8566 16.008C67.2871 15.6658 66.8741 15.2166 66.6179 14.6604L66.3189 16.3289H62.6667L65.4646 0.5H69.1167L68.1129 6.08289ZM72.5979 10.3396C72.6406 10.0971 72.662 9.87611 72.662 9.67647C72.662 8.96346 72.4555 8.40731 72.0426 8.00802C71.644 7.60873 71.1314 7.40909 70.5049 7.40909C69.7787 7.40909 69.1167 7.67291 68.5187 8.20053C67.9207 8.72816 67.5362 9.44831 67.3654 10.361C67.3227 10.6176 67.3013 10.8529 67.3013 11.0668C67.3013 11.7656 67.5006 12.3146 67.8993 12.7139C68.298 13.1132 68.8105 13.3128 69.437 13.3128C70.1632 13.3128 70.8253 13.049 71.4233 12.5214C72.0355 11.9795 72.4271 11.2522 72.5979 10.3396Z" fill="white"/>
<path d="M82.6083 16.5C81.5832 16.5 80.6719 16.2932 79.8746 15.8797C79.0773 15.4661 78.4579 14.8815 78.0165 14.1257C77.5894 13.3699 77.3758 12.4929 77.3758 11.4947C77.3758 10.1399 77.6962 8.90642 78.3369 7.79412C78.9776 6.68182 79.8604 5.81194 80.9852 5.18449C82.11 4.54278 83.363 4.22192 84.7441 4.22192C85.7692 4.22192 86.6805 4.43583 87.4778 4.86364C88.2894 5.27718 88.9159 5.86185 89.3573 6.61765C89.7987 7.37344 90.0194 8.25044 90.0194 9.24866C90.0194 10.6176 89.6919 11.8583 89.0369 12.9706C88.3962 14.0686 87.5063 14.9314 86.3672 15.5588C85.2424 16.1863 83.9895 16.5 82.6083 16.5ZM83.1209 13.3556C83.7189 13.3556 84.2529 13.1774 84.7227 12.8209C85.2068 12.4501 85.577 11.9795 85.8333 11.4091C86.1038 10.8244 86.2391 10.2184 86.2391 9.59091C86.2391 8.8779 86.0469 8.32888 85.6625 7.94385C85.278 7.55882 84.7939 7.36631 84.2101 7.36631C83.5979 7.36631 83.0569 7.55169 82.587 7.92246C82.1314 8.27897 81.7754 8.74955 81.5191 9.33422C81.2628 9.91889 81.1347 10.5321 81.1347 11.1738C81.1347 11.8725 81.3198 12.4144 81.69 12.7995C82.0602 13.1702 82.5372 13.3556 83.1209 13.3556Z" fill="white"/>
<path d="M96.207 16.5C95.1818 16.5 94.2706 16.2932 93.4732 15.8797C92.6759 15.4661 92.0565 14.8815 91.6151 14.1257C91.188 13.3699 90.9744 12.4929 90.9744 11.4947C90.9744 10.1399 91.2948 8.90642 91.9355 7.79412C92.5762 6.68182 93.459 5.81194 94.5838 5.18449C95.7086 4.54278 96.9616 4.22192 98.3427 4.22192C99.3679 4.22192 100.279 4.43583 101.076 4.86364C101.888 5.27718 102.515 5.86185 102.956 6.61765C103.397 7.37344 103.618 8.25044 103.618 9.24866C103.618 10.6176 103.291 11.8583 102.636 12.9706C101.995 14.0686 101.105 14.9314 99.9659 15.5588C98.8411 16.1863 97.5881 16.5 96.207 16.5ZM96.7196 13.3556C97.3176 13.3556 97.8515 13.1774 98.3214 12.8209C98.8055 12.4501 99.1757 11.9795 99.4319 11.4091C99.7025 10.8244 99.8377 10.2184 99.8377 9.59091C99.8377 8.8779 99.6455 8.32888 99.2611 7.94385C98.8766 7.55882 98.3925 7.36631 97.8088 7.36631C97.1965 7.36631 96.6555 7.55169 96.1856 7.92246C95.73 8.27897 95.374 8.74955 95.1178 9.33422C94.8615 9.91889 94.7333 10.5321 94.7333 11.1738C94.7333 11.8725 94.9184 12.4144 95.2886 12.7995C95.6588 13.1702 96.1358 13.3556 96.7196 13.3556Z" fill="white"/>
<path d="M110.297 16.5C109.257 16.5 108.332 16.3217 107.52 15.9652C106.709 15.6087 106.068 15.1239 105.598 14.5107C105.128 13.8832 104.865 13.1845 104.808 12.4144H108.417C108.46 12.828 108.652 13.1631 108.994 13.4198C109.336 13.6765 109.756 13.8048 110.254 13.8048C110.71 13.8048 111.059 13.7193 111.301 13.5481C111.557 13.3627 111.685 13.1275 111.685 12.8422C111.685 12.5 111.507 12.2504 111.151 12.0936C110.795 11.9225 110.219 11.7371 109.421 11.5374C108.567 11.3378 107.855 11.131 107.285 10.9171C106.716 10.6889 106.225 10.3396 105.812 9.86898C105.399 9.38413 105.192 8.73529 105.192 7.92246C105.192 7.23797 105.378 6.61765 105.748 6.0615C106.132 5.49109 106.687 5.04189 107.414 4.7139C108.154 4.38592 109.03 4.22192 110.041 4.22192C111.536 4.22192 112.71 4.59269 113.565 5.33422C114.433 6.07576 114.931 7.05971 115.06 8.2861H111.685C111.628 7.87255 111.443 7.54456 111.13 7.30214C110.831 7.05971 110.432 6.9385 109.934 6.9385C109.507 6.9385 109.179 7.02406 108.951 7.19519C108.724 7.35205 108.61 7.57308 108.61 7.85829C108.61 8.20053 108.788 8.45722 109.144 8.62834C109.514 8.79946 110.083 8.97059 110.852 9.14171C111.735 9.36987 112.454 9.59804 113.009 9.8262C113.565 10.0401 114.049 10.3966 114.462 10.8957C114.889 11.3806 115.109 12.0365 115.124 12.8636C115.124 13.5624 114.924 14.1898 114.526 14.746C114.141 15.2879 113.579 15.7157 112.838 16.0294C112.112 16.3431 111.265 16.5 110.297 16.5Z" fill="white"/>
<path d="M124 13.2273V16.3289H122.142C120.818 16.3289 119.786 16.008 119.045 15.3663C118.305 14.7103 117.935 13.6479 117.935 12.1791V7.43048H116.482V4.39305H117.935V1.48396H121.587V4.39305H123.979V7.43048H121.587V12.2219C121.587 12.5784 121.672 12.8351 121.843 12.992C122.014 13.1488 122.299 13.2273 122.697 13.2273H124Z" fill="white"/>
<path d="M5.38612 6.08289C5.83672 5.52674 6.40702 5.07754 7.097 4.73529C7.78699 4.39305 8.54034 4.22192 9.35706 4.22192C10.6244 4.22192 11.6453 4.6426 12.4198 5.48396C13.2083 6.31105 13.6026 7.44474 13.6026 8.88503C13.6026 9.34135 13.5604 9.8262 13.4759 10.3396C13.2646 11.566 12.8492 12.6497 12.2297 13.5909C11.6101 14.5178 10.8638 15.238 9.99072 15.7513C9.11768 16.2504 8.19535 16.5 7.22374 16.5C6.39294 16.5 5.69591 16.336 5.13266 16.008C4.5694 15.6658 4.16104 15.2166 3.90758 14.6604L3.61187 16.3289H0L2.76699 0.5H6.37886L5.38612 6.08289ZM9.82175 10.3396C9.86399 10.0971 9.88511 9.87611 9.88511 9.67647C9.88511 8.96346 9.68093 8.40731 9.27257 8.00802C8.8783 7.60873 8.37137 7.40909 7.75179 7.40909C7.03364 7.40909 6.37886 7.67291 5.78744 8.20053C5.19602 8.72816 4.81582 9.44831 4.64685 10.361C4.6046 10.6176 4.58348 10.8529 4.58348 11.0668C4.58348 11.7656 4.78062 12.3146 5.1749 12.7139C5.56918 13.1132 6.07611 13.3128 6.69569 13.3128C7.41384 13.3128 8.06862 13.049 8.66004 12.5214C9.26553 11.9795 9.65277 11.2522 9.82175 10.3396Z" fill="white"/>
<path d="M26.5232 10.1684C26.5232 10.5107 26.5021 10.8672 26.4598 11.238H18.2856C18.3419 11.9795 18.5742 12.5499 18.9826 12.9492C19.405 13.3342 19.919 13.5267 20.5245 13.5267C21.4257 13.5267 22.0523 13.1417 22.4044 12.3717H26.2486C26.0515 13.156 25.6924 13.8619 25.1714 14.4893C24.6644 15.1168 24.0237 15.6087 23.2493 15.9652C22.4748 16.3217 21.6088 16.5 20.6512 16.5C19.4966 16.5 18.4686 16.2504 17.5674 15.7513C16.6662 15.2522 15.9622 14.5392 15.4552 13.6123C14.9483 12.6854 14.6948 11.6016 14.6948 10.361C14.6948 9.12032 14.9413 8.03654 15.4341 7.10963C15.941 6.18271 16.6451 5.4697 17.5463 4.97059C18.4475 4.47148 19.4825 4.22192 20.6512 4.22192C21.7918 4.22192 22.8057 4.46435 23.6928 4.9492C24.5799 5.43405 25.2699 6.12567 25.7628 7.02406C26.2697 7.92246 26.5232 8.97059 26.5232 10.1684ZM22.8268 9.20588C22.8268 8.57843 22.6156 8.07932 22.1932 7.70856C21.7707 7.33779 21.2427 7.15241 20.609 7.15241C20.0035 7.15241 19.4895 7.33066 19.0671 7.68717C18.6587 8.04367 18.4053 8.54991 18.3067 9.20588H22.8268Z" fill="white"/>
<path d="M27.7105 10.3396C27.7105 9.11319 27.9358 8.03654 28.3864 7.10963C28.8511 6.18271 29.4777 5.4697 30.2662 4.97059C31.0548 4.47148 31.9349 4.22192 32.9065 4.22192C33.7373 4.22192 34.4625 4.39305 35.0821 4.73529C35.7157 5.07754 36.2015 5.52674 36.5395 6.08289V4.39305H40.1513V16.3289H36.5395V14.639C36.1874 15.1952 35.6946 15.6444 35.0609 15.9866C34.4414 16.3289 33.7162 16.5 32.8854 16.5C31.9278 16.5 31.0548 16.2504 30.2662 15.7513C29.4777 15.238 28.8511 14.5178 28.3864 13.5909C27.9358 12.6497 27.7105 11.566 27.7105 10.3396ZM36.5395 10.361C36.5395 9.44831 36.286 8.72816 35.7791 8.20053C35.2862 7.67291 34.6807 7.40909 33.9626 7.40909C33.2444 7.40909 32.6319 7.67291 32.125 8.20053C31.6321 8.7139 31.3857 9.42692 31.3857 10.3396C31.3857 11.2522 31.6321 11.9795 32.125 12.5214C32.6319 13.049 33.2444 13.3128 33.9626 13.3128C34.6807 13.3128 35.2862 13.049 35.7791 12.5214C36.286 11.9938 36.5395 11.2736 36.5395 10.361Z" fill="white"/>
<path d="M49.3333 13.2273V16.3289H47.4957C46.1861 16.3289 45.1652 16.008 44.433 15.3663C43.7008 14.7103 43.3347 13.6479 43.3347 12.1791V7.43048H41.8984V4.39305H43.3347V1.48396H46.9465V4.39305H49.3122V7.43048H46.9465V12.2219C46.9465 12.5784 47.031 12.8351 47.2 12.992C47.369 13.1488 47.6506 13.2273 48.0449 13.2273H49.3333Z" fill="white"/>
<path d="M63.3334 0.5H58.6667L52.6667 9.83333H55.3334L50.6667 16.5H55.3334L62.0001 7.16667H59.3334L63.3334 0.5Z" fill="url(#paint0_linear_24_18980)"/>
<defs>
<linearGradient id="paint0_linear_24_18980" x1="50.6667" y1="16.5" x2="64.1133" y2="15.8152" gradientUnits="userSpaceOnUse">
<stop stop-color="#BD1717"/>
<stop offset="1" stop-color="#CA0000"/>
</linearGradient>
</defs>
</svg>
