<svg width="19" height="19" viewBox="0 0 19 19" fill="none" xmlns="http://www.w3.org/2000/svg">
<path d="M6.06252 9.50007H14.7066L16.194 4.29426H13.9629M15.4503 12.4748H6.52605L5.03868 2.80688H2.80762M11.7319 5.78163H8.75711M10.2445 7.26901V4.29426M7.26974 15.4496C7.26974 15.8603 6.93678 16.1932 6.52605 16.1932C6.11532 16.1932 5.78236 15.8603 5.78236 15.4496C5.78236 15.0388 6.11532 14.7059 6.52605 14.7059C6.93678 14.7059 7.26974 15.0388 7.26974 15.4496ZM15.4503 15.4496C15.4503 15.8603 15.1173 16.1932 14.7066 16.1932C14.2959 16.1932 13.9629 15.8603 13.9629 15.4496C13.9629 15.0388 14.2959 14.7059 14.7066 14.7059C15.1173 14.7059 15.4503 15.0388 15.4503 15.4496Z" stroke="white" stroke-width="1.48737" stroke-linecap="round" stroke-linejoin="round"/>
</svg>
