<svg width="22" height="24" viewBox="0 0 22 24" fill="none" xmlns="http://www.w3.org/2000/svg">
<path d="M16.3889 8.28128C18.5509 9.49739 19.6319 10.1055 19.992 10.9045C20.3059 11.6011 20.3059 12.3989 19.992 13.0955C19.6319 13.8945 18.5509 14.5026 16.3889 15.7187L8.02511 20.4234C5.93493 21.5991 4.88984 22.187 4.03379 22.0902C3.28695 22.0058 2.61042 21.6101 2.1707 21.0006C1.66667 20.3019 1.66667 19.1028 1.66667 16.7047V7.29535C1.66667 4.89718 1.66667 3.6981 2.1707 2.99943C2.61042 2.3899 3.28695 1.99423 4.03379 1.9098C4.88984 1.81303 5.93493 2.4009 8.02511 3.57663L16.3889 8.28128Z" fill="white" stroke="white" stroke-width="2.66667" stroke-linecap="round" stroke-linejoin="round"/>
</svg>
