<svg width="10" height="12" viewBox="0 0 10 12" fill="none" xmlns="http://www.w3.org/2000/svg">
<path d="M8.33301 0.999987V11M0.833008 2.72753V9.27245C0.833008 10.1012 0.833008 10.5156 1.00519 10.74C1.15513 10.9355 1.38383 11.0545 1.62991 11.0653C1.9125 11.0777 2.25199 10.84 2.93096 10.3648L6.82568 7.63845C7.6131 7.08726 8.00681 6.81166 8.14555 6.46831C8.26695 6.16789 8.26695 5.83208 8.14555 5.53166C8.00681 5.18831 7.6131 4.91272 6.82568 4.36152L2.93096 1.63522C2.25199 1.15994 1.9125 0.922297 1.62991 0.934663C1.38383 0.945431 1.15513 1.06451 1.00519 1.25993C0.833008 1.48434 0.833008 1.89874 0.833008 2.72753Z" stroke="white" stroke-width="1.66667" stroke-linecap="round" stroke-linejoin="round"/>
</svg>
