<svg width="12" height="12" viewBox="0 0 12 12" fill="none" xmlns="http://www.w3.org/2000/svg">
<path d="M8.69447 4.14064C9.77546 4.7487 10.316 5.05273 10.496 5.45223C10.6529 5.80054 10.6529 6.19946 10.496 6.54777C10.316 6.94727 9.77546 7.2513 8.69447 7.85936L4.51256 10.2117C3.46747 10.7996 2.94492 11.0935 2.5169 11.0451C2.14348 11.0029 1.80521 10.8051 1.58535 10.5003C1.33333 10.151 1.33333 9.55141 1.33333 8.35233V3.64767C1.33333 2.44859 1.33333 1.84905 1.58535 1.49971C1.80521 1.19495 2.14348 0.997114 2.5169 0.954902C2.94492 0.906516 3.46746 1.20045 4.51256 1.78831L8.69447 4.14064Z" fill="white" stroke="white" stroke-width="1.33333" stroke-linecap="round" stroke-linejoin="round"/>
</svg>
