<svg width="20" height="20" viewBox="0 0 20 20" fill="none" xmlns="http://www.w3.org/2000/svg">
<path d="M14.0004 7.00002C14.6281 7.83568 15 8.87442 15 10C15 11.1256 14.6281 12.1644 14.0004 13M16 3.2917C17.8412 4.93967 19 7.33452 19 10C19 12.6655 17.8412 15.0604 16 16.7083M2.6 7.00002H3.5012C4.05213 7.00002 4.32759 7.00002 4.58285 6.93135C4.80903 6.8705 5.02275 6.77039 5.21429 6.6356C5.43047 6.48347 5.60681 6.27185 5.95951 5.84861L8.58542 2.69752C9.02111 2.1747 9.23895 1.91329 9.42924 1.88608C9.59402 1.86252 9.75972 1.92252 9.87123 2.04611C10 2.18883 10 2.5291 10 3.20966V16.7904C10 17.4709 10 17.8112 9.87123 17.9539C9.75972 18.0775 9.59402 18.1375 9.42924 18.114C9.23895 18.0868 9.02109 17.8253 8.58542 17.3025L5.95951 14.1514C5.60681 13.7282 5.43047 13.5166 5.21429 13.3644C5.02275 13.2297 4.80903 13.1295 4.58285 13.0687C4.32759 13 4.05213 13 3.5012 13H2.6C2.03995 13 1.75992 13 1.54601 12.891C1.35785 12.7952 1.20487 12.6422 1.10899 12.454C1 12.2401 1 11.9601 1 11.4V8.60002C1 8.03997 1 7.75995 1.10899 7.54603C1.20487 7.35787 1.35785 7.20489 1.54601 7.10902C1.75992 7.00002 2.03995 7.00002 2.6 7.00002Z" stroke="white" stroke-width="2" stroke-linecap="round" stroke-linejoin="round"/>
</svg>
