<svg width="10" height="12" viewBox="0 0 10 12" fill="none" xmlns="http://www.w3.org/2000/svg">
<path d="M1.66699 1.00005V11M9.16699 2.72759V9.27251C9.16699 10.1013 9.16699 10.5157 8.99481 10.7401C8.84487 10.9355 8.61617 11.0546 8.37009 11.0654C8.0875 11.0777 7.74801 10.8401 7.06904 10.3648L3.17432 7.63851C2.3869 7.08732 1.99319 6.81172 1.85445 6.46837C1.73305 6.16796 1.73305 5.83214 1.85445 5.53173C1.99319 5.18837 2.3869 4.91278 3.17432 4.36158L7.06904 1.63528C7.74802 1.16 8.0875 0.922358 8.37009 0.934724C8.61617 0.945492 8.84487 1.06457 8.99481 1.25999C9.16699 1.4844 9.16699 1.8988 9.16699 2.72759Z" stroke="white" stroke-width="1.66667" stroke-linecap="round" stroke-linejoin="round"/>
</svg>
