<svg width="33" height="16" viewBox="0 0 33 16" fill="none" xmlns="http://www.w3.org/2000/svg">
<path d="M0.37373 9.40562C0.304873 9.40562 0.250221 9.45887 0.241317 9.5348L0 11.3678L0.241317 13.1693C0.250221 13.2452 0.30484 13.2981 0.37373 13.2981C0.44042 13.2981 0.494739 13.2456 0.505376 13.17L0.791409 11.3678L0.505376 9.53443C0.495073 9.45884 0.440087 9.40562 0.37373 9.40562ZM1.73084 8.40411C1.71947 8.32534 1.66305 8.27103 1.59349 8.27103C1.52356 8.27103 1.46571 8.32711 1.45614 8.40411L1.13176 11.3678L1.45614 14.2659C1.46538 14.3436 1.52323 14.3997 1.59349 14.3997C1.66268 14.3997 1.71913 14.3451 1.73047 14.2666L2.09953 11.3678L1.73084 8.40411ZM6.84275 5.67035C6.70967 5.67035 6.59963 5.77929 6.59326 5.91771L6.33491 11.3703L6.59326 14.8941C6.6 15.0318 6.70967 15.1404 6.84275 15.1404C6.97513 15.1404 7.0848 15.0314 7.09261 14.8934V14.8944L7.38467 11.3703L7.09261 5.91771C7.08477 5.77929 6.9751 5.67035 6.84275 5.67035ZM4.197 7.56548C4.09479 7.56548 4.0114 7.64711 4.00319 7.75605L3.71219 11.3689L4.00319 14.8642C4.011 14.9725 4.09476 15.0541 4.197 15.0541C4.29813 15.0541 4.38153 14.9725 4.39043 14.8642L4.72118 11.3689L4.39043 7.75531C4.38153 7.64711 4.29813 7.56548 4.197 7.56548ZM9.53145 15.14C9.69648 15.14 9.83063 15.0069 9.83736 14.8365L10.0908 11.3721L9.83773 4.11268C9.83099 3.94232 9.69681 3.80924 9.53182 3.80924C9.36536 3.80924 9.23088 3.94268 9.22552 4.11304L9.00087 11.3717L9.22552 14.8376C9.23085 15.0066 9.36533 15.14 9.53145 15.14ZM15.0359 15.1564C15.263 15.1564 15.4504 14.9693 15.4547 14.7393L15.6314 11.3742L15.4546 2.99015C15.4507 2.76054 15.263 2.57317 15.0358 2.57317C14.8084 2.57317 14.6206 2.76021 14.6171 2.99052L14.4591 11.3714C14.4591 11.3767 14.6171 14.7414 14.6171 14.7414C14.6207 14.9693 14.8087 15.1564 15.0359 15.1564ZM12.2627 15.1432C12.4604 15.1432 12.6197 14.9846 12.6251 14.7823V14.7848L12.8401 11.3728L12.6247 4.06089C12.6194 3.85859 12.46 3.70033 12.2623 3.70033C12.0632 3.70033 11.9039 3.85862 11.8996 4.06089L11.7084 11.3732L11.9 14.7844C11.9043 14.9846 12.0636 15.1432 12.2627 15.1432ZM5.51472 15.1113C5.6322 15.1113 5.72733 15.0172 5.7362 14.8934L6.04781 11.3689L5.7362 8.0162C5.7277 7.89236 5.6326 7.799 5.51472 7.799C5.39551 7.799 5.30038 7.89303 5.29294 8.01764L5.01858 11.3689L5.29294 14.893C5.30075 15.0172 5.39548 15.1113 5.51472 15.1113ZM2.88994 14.9182C2.9758 14.9182 3.04536 14.8504 3.0553 14.7567L3.40522 11.3682L3.05563 7.85188C3.04533 7.75785 2.97577 7.69002 2.88991 7.69002C2.80294 7.69002 2.73339 7.75818 2.72452 7.85188L2.41648 11.3682L2.72452 14.756C2.73305 14.8501 2.80261 14.9182 2.88994 14.9182ZM13.644 3.93915C13.4293 3.93915 13.2571 4.10988 13.2529 4.32849L13.0783 11.3735L13.2529 14.7635C13.2572 14.9792 13.4289 15.15 13.644 15.15C13.8583 15.15 14.0294 14.9796 14.0344 14.761V14.7638L14.2303 11.3739L14.0344 4.32775C14.0294 4.10988 13.8583 3.93915 13.644 3.93915ZM8.18212 15.1471C8.33047 15.1471 8.45291 15.0261 8.46002 14.8717L8.73258 11.3713L8.46002 4.67164C8.45255 4.51688 8.33047 4.39624 8.18212 4.39624C8.03237 4.39624 7.91029 4.51725 7.90389 4.67164L7.66257 11.3713L7.90426 14.8731C7.91026 15.0261 8.03233 15.1471 8.18212 15.1471ZM11.2257 14.8149L11.4599 11.3724L11.2257 3.86853C11.22 3.68223 11.0731 3.53601 10.8917 3.53601C10.7093 3.53601 10.5624 3.68186 10.5574 3.86853L10.3495 11.3721L10.5578 14.8163C10.5627 15.0009 10.7097 15.1467 10.8918 15.1467C11.0735 15.1467 11.2196 15.0005 11.2257 14.8149ZM28.9414 7.04697C28.3852 7.04697 27.8547 7.15947 27.3713 7.36211C27.0483 3.70387 23.9806 0.834167 20.2386 0.834167C19.323 0.834167 18.4304 1.01446 17.6422 1.3193C17.3359 1.43784 17.2543 1.55992 17.2515 1.79664V14.6793C17.2547 14.9277 17.4474 15.1347 17.6898 15.1592C17.7001 15.1602 28.8686 15.1659 28.9411 15.1659C31.1826 15.1659 33 13.3485 33 11.1066C33 8.86473 31.1829 7.04697 28.9414 7.04697ZM16.4217 1.7853C16.1779 1.7853 15.9778 1.98547 15.9742 2.23139L15.7911 11.3753L15.9746 14.6939C15.9778 14.9363 16.1779 15.1361 16.4217 15.1361C16.6648 15.1361 16.865 14.9363 16.8685 14.6904V14.6943L17.0676 11.3753L16.8685 2.23069C16.865 1.98547 16.6648 1.7853 16.4217 1.7853Z" fill="url(#paint0_linear_276_19468)"/>
<defs>
<linearGradient id="paint0_linear_276_19468" x1="16.4985" y1="0.83154" x2="16.4985" y2="19.6432" gradientUnits="userSpaceOnUse">
<stop stop-color="#F79810"/>
<stop offset="1" stop-color="#F8310E"/>
</linearGradient>
</defs>
</svg>
