<svg width="12" height="11" viewBox="0 0 12 11" fill="none" xmlns="http://www.w3.org/2000/svg">
<path d="M5.6348 1.81968C5.75056 1.55999 5.80844 1.43015 5.88903 1.39016C5.95904 1.35542 6.04126 1.35542 6.11127 1.39016C6.19186 1.43015 6.24974 1.55999 6.3655 1.81968L7.28751 3.88815C7.32173 3.96492 7.33884 4.0033 7.36532 4.0327C7.38875 4.05871 7.41738 4.07951 7.44936 4.09375C7.4855 4.10985 7.52729 4.11426 7.61088 4.12308L9.86302 4.36078C10.1458 4.39063 10.2871 4.40555 10.3501 4.46984C10.4048 4.52569 10.4302 4.60389 10.4188 4.6812C10.4056 4.77021 10.3 4.86538 10.0888 5.05572L8.40651 6.5718C8.34407 6.62807 8.31285 6.6562 8.29308 6.69047C8.27558 6.72079 8.26465 6.75444 8.26098 6.78925C8.25684 6.8286 8.26556 6.86971 8.283 6.95193L8.75288 9.16731C8.81188 9.44544 8.84137 9.58451 8.79968 9.66423C8.76346 9.73348 8.69694 9.78181 8.61988 9.79486C8.53117 9.80988 8.40803 9.73885 8.16174 9.5968L6.2 8.46532C6.12719 8.42333 6.09078 8.40233 6.05208 8.39411C6.01784 8.38684 5.98245 8.38684 5.94821 8.39411C5.90951 8.40233 5.87311 8.42333 5.8003 8.46532L3.83856 9.5968C3.59227 9.73885 3.46912 9.80988 3.38041 9.79486C3.30336 9.78181 3.23684 9.73348 3.20062 9.66423C3.15892 9.58451 3.18842 9.44544 3.24741 9.16731L3.7173 6.95193C3.73474 6.86971 3.74346 6.8286 3.73931 6.78925C3.73565 6.75444 3.72471 6.72079 3.70722 6.69047C3.68744 6.6562 3.65622 6.62807 3.59378 6.5718L1.91147 5.05572C1.70027 4.86538 1.59466 4.77021 1.58154 4.6812C1.57013 4.60389 1.59554 4.52569 1.65021 4.46984C1.71315 4.40555 1.85452 4.39063 2.13727 4.36078L4.38942 4.12308C4.47301 4.11426 4.5148 4.10985 4.55094 4.09375C4.58292 4.07951 4.61155 4.05871 4.63497 4.0327C4.66145 4.0033 4.67856 3.96492 4.71278 3.88815L5.6348 1.81968Z" stroke="white" stroke-width="1.33333" stroke-linecap="round" stroke-linejoin="round"/>
</svg>
