<svg width="14" height="14" viewBox="0 0 14 14" fill="none" xmlns="http://www.w3.org/2000/svg">
<path d="M5.86761 8.44418L12.4017 1.91251M6.05333 8.7379L7.53495 11.7011C7.89299 12.4172 8.07201 12.7753 8.29754 12.8713C8.49326 12.9546 8.717 12.9395 8.89976 12.8307C9.11037 12.7053 9.23973 12.3265 9.49844 11.5688L12.2979 3.37046C12.5233 2.71029 12.636 2.3802 12.5589 2.16184C12.4917 1.97188 12.3423 1.82246 12.1524 1.75534C11.934 1.67819 11.6039 1.79091 10.9437 2.01633L2.74541 4.81576C1.98775 5.07448 1.60892 5.20383 1.48351 5.41444C1.37468 5.59721 1.3596 5.82094 1.44292 6.01666C1.53893 6.24219 1.89698 6.42121 2.61307 6.77926L5.5763 8.26087C5.6943 8.31987 5.75329 8.34937 5.80442 8.38878C5.84979 8.42375 5.89046 8.46442 5.92542 8.50978C5.96483 8.56091 5.99433 8.61991 6.05333 8.7379Z" stroke="white" stroke-width="2" stroke-linecap="round" stroke-linejoin="round"/>
</svg>
