<svg width="11" height="11" viewBox="0 0 11 11" fill="none" xmlns="http://www.w3.org/2000/svg">
<path d="M4.57975 6.41809L9.88867 1.11111M4.73065 6.65674L5.93446 9.06436C6.22537 9.64619 6.37083 9.9371 6.55407 10.0151C6.71309 10.0828 6.89488 10.0706 7.04338 9.98213C7.21449 9.88024 7.3196 9.57244 7.5298 8.95684L9.80434 2.29569C9.98749 1.7593 10.0791 1.49111 10.0164 1.31369C9.96186 1.15935 9.84045 1.03794 9.68611 0.983409C9.5087 0.920727 9.2405 1.01231 8.70411 1.19546L2.04296 3.47C1.42736 3.68021 1.11956 3.78531 1.01767 3.95643C0.929244 4.10493 0.916992 4.28671 0.98469 4.44573C1.0627 4.62897 1.35361 4.77443 1.93544 5.06534L4.34306 6.26915C4.43893 6.31709 4.48687 6.34106 4.52841 6.37308C4.56527 6.40149 4.59831 6.43453 4.62672 6.47139C4.65874 6.51293 4.68271 6.56087 4.73065 6.65674Z" stroke="white" stroke-width="1.625" stroke-linecap="round" stroke-linejoin="round"/>
</svg>
